G04 #@! TF.GenerationSoftware,KiCad,Pcbnew,8.0.6*
G04 #@! TF.CreationDate,2024-12-04T19:19:15+01:00*
G04 #@! TF.ProjectId,Shield_Frequency_meter_STM32,53686965-6c64-45f4-9672-657175656e63,rev?*
G04 #@! TF.SameCoordinates,Original*
G04 #@! TF.FileFunction,Copper,L1,Top*
G04 #@! TF.FilePolarity,Positive*
%FSLAX46Y46*%
G04 Gerber Fmt 4.6, Leading zero omitted, Abs format (unit mm)*
G04 Created by KiCad (PCBNEW 8.0.6) date 2024-12-04 19:19:15*
%MOMM*%
%LPD*%
G01*
G04 APERTURE LIST*
G04 Aperture macros list*
%AMRoundRect*
0 Rectangle with rounded corners*
0 $1 Rounding radius*
0 $2 $3 $4 $5 $6 $7 $8 $9 X,Y pos of 4 corners*
0 Add a 4 corners polygon primitive as box body*
4,1,4,$2,$3,$4,$5,$6,$7,$8,$9,$2,$3,0*
0 Add four circle primitives for the rounded corners*
1,1,$1+$1,$2,$3*
1,1,$1+$1,$4,$5*
1,1,$1+$1,$6,$7*
1,1,$1+$1,$8,$9*
0 Add four rect primitives between the rounded corners*
20,1,$1+$1,$2,$3,$4,$5,0*
20,1,$1+$1,$4,$5,$6,$7,0*
20,1,$1+$1,$6,$7,$8,$9,0*
20,1,$1+$1,$8,$9,$2,$3,0*%
G04 Aperture macros list end*
G04 #@! TA.AperFunction,ComponentPad*
%ADD10R,1.700000X1.700000*%
G04 #@! TD*
G04 #@! TA.AperFunction,ComponentPad*
%ADD11O,1.700000X1.700000*%
G04 #@! TD*
G04 #@! TA.AperFunction,SMDPad,CuDef*
%ADD12RoundRect,0.250000X0.450000X-0.350000X0.450000X0.350000X-0.450000X0.350000X-0.450000X-0.350000X0*%
G04 #@! TD*
G04 #@! TA.AperFunction,SMDPad,CuDef*
%ADD13RoundRect,0.250000X-0.412500X-1.100000X0.412500X-1.100000X0.412500X1.100000X-0.412500X1.100000X0*%
G04 #@! TD*
G04 #@! TA.AperFunction,SMDPad,CuDef*
%ADD14RoundRect,0.155000X-0.155000X0.212500X-0.155000X-0.212500X0.155000X-0.212500X0.155000X0.212500X0*%
G04 #@! TD*
G04 #@! TA.AperFunction,SMDPad,CuDef*
%ADD15RoundRect,0.250000X-0.650000X0.412500X-0.650000X-0.412500X0.650000X-0.412500X0.650000X0.412500X0*%
G04 #@! TD*
G04 #@! TA.AperFunction,SMDPad,CuDef*
%ADD16RoundRect,0.250000X-0.350000X-0.450000X0.350000X-0.450000X0.350000X0.450000X-0.350000X0.450000X0*%
G04 #@! TD*
G04 #@! TA.AperFunction,SMDPad,CuDef*
%ADD17RoundRect,0.250000X-1.100000X0.412500X-1.100000X-0.412500X1.100000X-0.412500X1.100000X0.412500X0*%
G04 #@! TD*
G04 #@! TA.AperFunction,SMDPad,CuDef*
%ADD18RoundRect,0.250000X0.350000X0.450000X-0.350000X0.450000X-0.350000X-0.450000X0.350000X-0.450000X0*%
G04 #@! TD*
G04 #@! TA.AperFunction,SMDPad,CuDef*
%ADD19RoundRect,0.150000X-0.512500X-0.150000X0.512500X-0.150000X0.512500X0.150000X-0.512500X0.150000X0*%
G04 #@! TD*
G04 #@! TA.AperFunction,SMDPad,CuDef*
%ADD20RoundRect,0.250000X-0.450000X0.350000X-0.450000X-0.350000X0.450000X-0.350000X0.450000X0.350000X0*%
G04 #@! TD*
G04 #@! TA.AperFunction,SMDPad,CuDef*
%ADD21RoundRect,0.237500X-0.237500X0.300000X-0.237500X-0.300000X0.237500X-0.300000X0.237500X0.300000X0*%
G04 #@! TD*
G04 #@! TA.AperFunction,SMDPad,CuDef*
%ADD22RoundRect,0.162500X-0.837500X-0.162500X0.837500X-0.162500X0.837500X0.162500X-0.837500X0.162500X0*%
G04 #@! TD*
G04 #@! TA.AperFunction,ComponentPad*
%ADD23C,1.700000*%
G04 #@! TD*
G04 #@! TA.AperFunction,SMDPad,CuDef*
%ADD24RoundRect,0.250000X0.650000X-0.412500X0.650000X0.412500X-0.650000X0.412500X-0.650000X-0.412500X0*%
G04 #@! TD*
G04 #@! TA.AperFunction,ComponentPad*
%ADD25O,2.500000X1.600000*%
G04 #@! TD*
G04 #@! TA.AperFunction,ComponentPad*
%ADD26O,7.000000X3.500000*%
G04 #@! TD*
G04 #@! TA.AperFunction,SMDPad,CuDef*
%ADD27RoundRect,0.250000X-0.475000X0.337500X-0.475000X-0.337500X0.475000X-0.337500X0.475000X0.337500X0*%
G04 #@! TD*
G04 #@! TA.AperFunction,SMDPad,CuDef*
%ADD28RoundRect,0.200000X0.750000X0.200000X-0.750000X0.200000X-0.750000X-0.200000X0.750000X-0.200000X0*%
G04 #@! TD*
G04 #@! TA.AperFunction,ViaPad*
%ADD29C,0.600000*%
G04 #@! TD*
G04 #@! TA.AperFunction,Conductor*
%ADD30C,0.254000*%
G04 #@! TD*
G04 #@! TA.AperFunction,Conductor*
%ADD31C,0.304800*%
G04 #@! TD*
G04 #@! TA.AperFunction,Conductor*
%ADD32C,0.200000*%
G04 #@! TD*
G04 APERTURE END LIST*
D10*
X127940000Y-97460000D03*
D11*
X130480000Y-97460000D03*
X133020000Y-97460000D03*
X135560000Y-97460000D03*
X138100000Y-97460000D03*
X140640000Y-97460000D03*
X143180000Y-97460000D03*
X145720000Y-97460000D03*
D10*
X150800000Y-97460000D03*
D11*
X153340000Y-97460000D03*
X155880000Y-97460000D03*
X158420000Y-97460000D03*
X160960000Y-97460000D03*
X163500000Y-97460000D03*
D10*
X118796000Y-49200000D03*
D11*
X121336000Y-49200000D03*
X123876000Y-49200000D03*
X126416000Y-49200000D03*
X128956000Y-49200000D03*
X131496000Y-49200000D03*
X134036000Y-49200000D03*
X136576000Y-49200000D03*
X139116000Y-49200000D03*
X141656000Y-49200000D03*
D10*
X145720000Y-49200000D03*
D11*
X148260000Y-49200000D03*
X150800000Y-49200000D03*
X153340000Y-49200000D03*
X155880000Y-49200000D03*
X158420000Y-49200000D03*
X160960000Y-49200000D03*
X163500000Y-49200000D03*
D10*
X123000000Y-97500000D03*
D11*
X120460000Y-97500000D03*
D12*
X142800000Y-55200000D03*
X142800000Y-53200000D03*
D13*
X138625000Y-81037500D03*
X141750000Y-81037500D03*
D14*
X149200000Y-54000000D03*
X149200000Y-55135000D03*
D15*
X143000000Y-66000000D03*
X143000000Y-69125000D03*
D16*
X146700000Y-62300000D03*
X148700000Y-62300000D03*
D17*
X145200000Y-84437500D03*
X145200000Y-87562500D03*
D18*
X148700000Y-59900000D03*
X146700000Y-59900000D03*
D19*
X138962500Y-84687500D03*
X138962500Y-85637500D03*
X138962500Y-86587500D03*
X141237500Y-86587500D03*
X141237500Y-84687500D03*
D20*
X145750000Y-53250000D03*
X145750000Y-55250000D03*
D21*
X151200000Y-53075000D03*
X151200000Y-54800000D03*
D22*
X146540000Y-65050000D03*
X146540000Y-66000000D03*
X146540000Y-66950000D03*
X149960000Y-66950000D03*
X149960000Y-65050000D03*
D23*
X137000000Y-53600000D03*
D24*
X153200000Y-64800000D03*
X153200000Y-61675000D03*
D11*
X150200000Y-71200000D03*
D10*
X128100000Y-90450000D03*
D11*
X125560000Y-90450000D03*
X123020000Y-90450000D03*
D12*
X139200000Y-68000000D03*
X139200000Y-66000000D03*
D25*
X155670000Y-74580000D03*
D26*
X160750000Y-69500000D03*
D25*
X155670000Y-72040000D03*
D26*
X160750000Y-79660000D03*
D27*
X136000000Y-85637500D03*
X136000000Y-87712500D03*
D28*
X143600000Y-60350000D03*
X143600000Y-58450000D03*
X140600000Y-59400000D03*
D23*
X137000000Y-62400000D03*
D27*
X153600000Y-52725000D03*
X153600000Y-54800000D03*
D29*
X144050000Y-81000000D03*
X133700000Y-87650000D03*
X142850000Y-86550000D03*
X146550000Y-57650000D03*
X153100000Y-59800000D03*
X151200000Y-57150000D03*
X142950000Y-71350000D03*
X149350000Y-68600000D03*
X151150000Y-68600000D03*
D30*
X151200000Y-54800000D02*
X151200000Y-57150000D01*
X153200000Y-61675000D02*
X153200000Y-59900000D01*
X146700000Y-57800000D02*
X146550000Y-57650000D01*
X141750000Y-81037500D02*
X144012500Y-81037500D01*
D31*
X133762500Y-87712500D02*
X133700000Y-87650000D01*
D30*
X153600000Y-56350000D02*
X152800000Y-57150000D01*
X146700000Y-59900000D02*
X146700000Y-57800000D01*
X145750000Y-56850000D02*
X146550000Y-57650000D01*
D31*
X136000000Y-87712500D02*
X133762500Y-87712500D01*
D30*
X143000000Y-71300000D02*
X142950000Y-71350000D01*
X152800000Y-57150000D02*
X151200000Y-57150000D01*
X149200000Y-55135000D02*
X149200000Y-55900000D01*
X142812500Y-86587500D02*
X142850000Y-86550000D01*
X141237500Y-86587500D02*
X142812500Y-86587500D01*
X153600000Y-54800000D02*
X153600000Y-56350000D01*
X150450000Y-57150000D02*
X151200000Y-57150000D01*
X143000000Y-69125000D02*
X143000000Y-71300000D01*
X153200000Y-59900000D02*
X153100000Y-59800000D01*
X144012500Y-81037500D02*
X144050000Y-81000000D01*
X149200000Y-55900000D02*
X150450000Y-57150000D01*
X145750000Y-55250000D02*
X145750000Y-56850000D01*
X147500000Y-71550000D02*
X147500000Y-69550000D01*
D31*
X125560000Y-90450000D02*
X125560000Y-89040000D01*
D30*
X140100000Y-78950000D02*
X147500000Y-71550000D01*
D31*
X128962500Y-85637500D02*
X136000000Y-85637500D01*
D30*
X147500000Y-69550000D02*
X148450000Y-68600000D01*
X140100000Y-85400000D02*
X140100000Y-78950000D01*
X151150000Y-68600000D02*
X151650000Y-68100000D01*
D31*
X125560000Y-89040000D02*
X128962500Y-85637500D01*
D30*
X152950000Y-65050000D02*
X153200000Y-64800000D01*
X152050000Y-65050000D02*
X152950000Y-65050000D01*
X151650000Y-68100000D02*
X151650000Y-65050000D01*
X138962500Y-85637500D02*
X139862500Y-85637500D01*
X148450000Y-68600000D02*
X149350000Y-68600000D01*
X139862500Y-85637500D02*
X140100000Y-85400000D01*
X149960000Y-65050000D02*
X151650000Y-65050000D01*
D31*
X136000000Y-85637500D02*
X138962500Y-85637500D01*
D30*
X151650000Y-65050000D02*
X152050000Y-65050000D01*
X145750000Y-49230000D02*
X145720000Y-49200000D01*
X151200000Y-53075000D02*
X153250000Y-53075000D01*
X145750000Y-53250000D02*
X148450000Y-53250000D01*
X137400000Y-53200000D02*
X137000000Y-53600000D01*
X148450000Y-53250000D02*
X149200000Y-54000000D01*
X149200000Y-54000000D02*
X150275000Y-54000000D01*
X150275000Y-54000000D02*
X151200000Y-53075000D01*
X142800000Y-53200000D02*
X145700000Y-53200000D01*
X145750000Y-53250000D02*
X145750000Y-49230000D01*
X145700000Y-53200000D02*
X145750000Y-53250000D01*
X153250000Y-53075000D02*
X153600000Y-52725000D01*
X142800000Y-53200000D02*
X137400000Y-53200000D01*
X138962500Y-86587500D02*
X139937500Y-87562500D01*
X139937500Y-87562500D02*
X145200000Y-87562500D01*
X141237500Y-84687500D02*
X144950000Y-84687500D01*
X144950000Y-84687500D02*
X145200000Y-84437500D01*
X138800000Y-84525000D02*
X138800000Y-81137500D01*
X138900000Y-81037500D02*
X138900000Y-68300000D01*
X138962500Y-84687500D02*
X138800000Y-84525000D01*
X138800000Y-81137500D02*
X138900000Y-81037500D01*
X138900000Y-68300000D02*
X139200000Y-68000000D01*
X143000000Y-66000000D02*
X146540000Y-66000000D01*
X139200000Y-66000000D02*
X143000000Y-66000000D01*
X140600000Y-56250000D02*
X141650000Y-55200000D01*
X141650000Y-55200000D02*
X142800000Y-55200000D01*
X140600000Y-59400000D02*
X140600000Y-56250000D01*
X142200000Y-62400000D02*
X143150000Y-61450000D01*
X143150000Y-61450000D02*
X143150000Y-60800000D01*
X143150000Y-60800000D02*
X143600000Y-60350000D01*
X146700000Y-62300000D02*
X145550000Y-62300000D01*
X146540000Y-62460000D02*
X146700000Y-62300000D01*
X137000000Y-62400000D02*
X142200000Y-62400000D01*
X146540000Y-65050000D02*
X146540000Y-62460000D01*
X145550000Y-62300000D02*
X143600000Y-60350000D01*
D31*
X133400000Y-90450000D02*
X138100000Y-95150000D01*
X128100000Y-90450000D02*
X133400000Y-90450000D01*
X138100000Y-95150000D02*
X138100000Y-97460000D01*
X123000000Y-97500000D02*
X123000000Y-90470000D01*
D30*
X123000000Y-90470000D02*
X123020000Y-90450000D01*
X150200000Y-67190000D02*
X149960000Y-66950000D01*
X155670000Y-74580000D02*
X153580000Y-74580000D01*
D32*
X155380000Y-74580000D02*
X155920000Y-74580000D01*
D30*
X150200000Y-71200000D02*
X150200000Y-67190000D01*
X153580000Y-74580000D02*
X150200000Y-71200000D01*
X148400000Y-62600000D02*
X148700000Y-62300000D01*
X146540000Y-66950000D02*
X147539999Y-66950000D01*
X148700000Y-62300000D02*
X148700000Y-59900000D01*
X147539999Y-66950000D02*
X148400000Y-66089999D01*
X148400000Y-66089999D02*
X148400000Y-62600000D01*
M02*
