M48
; DRILL file {KiCad 8.0.6} date 2024-12-04T19:17:34+0100
; FORMAT={-:-/ absolute / metric / decimal}
; #@! TF.CreationDate,2024-12-04T19:17:34+01:00
; #@! TF.GenerationSoftware,Kicad,Pcbnew,8.0.6
; #@! TF.FileFunction,Plated,1,2,PTH
FMAT,2
METRIC
; #@! TA.AperFunction,Plated,PTH,ViaDrill
T1C0.300
; #@! TA.AperFunction,Plated,PTH,ComponentDrill
T2C0.890
; #@! TA.AperFunction,Plated,PTH,ComponentDrill
T3C1.000
; #@! TA.AperFunction,Plated,PTH,ComponentDrill
T4C2.010
%
G90
G05
T1
X133.7Y-87.65
X142.85Y-86.55
X142.95Y-71.35
X144.05Y-81.0
X146.55Y-57.65
X149.35Y-68.6
X151.15Y-68.6
X151.2Y-57.15
X153.1Y-59.8
T2
X155.67Y-72.04
X155.67Y-74.58
T3
X118.796Y-49.2
X120.46Y-97.5
X121.336Y-49.2
X123.0Y-97.5
X123.02Y-90.45
X123.876Y-49.2
X125.56Y-90.45
X126.416Y-49.2
X127.94Y-97.46
X128.1Y-90.45
X128.956Y-49.2
X130.48Y-97.46
X131.496Y-49.2
X133.02Y-97.46
X134.036Y-49.2
X135.56Y-97.46
X136.576Y-49.2
X137.0Y-53.6
X137.0Y-62.4
X138.1Y-97.46
X139.116Y-49.2
X140.64Y-97.46
X141.656Y-49.2
X143.18Y-97.46
X145.72Y-49.2
X145.72Y-97.46
X148.26Y-49.2
X150.2Y-71.2
X150.8Y-49.2
X150.8Y-97.46
X153.34Y-49.2
X153.34Y-97.46
X155.88Y-49.2
X155.88Y-97.46
X158.42Y-49.2
X158.42Y-97.46
X160.96Y-49.2
X160.96Y-97.46
X163.5Y-49.2
X163.5Y-97.46
T4
X160.75Y-69.5
X160.75Y-79.66
M30
