G04 #@! TF.GenerationSoftware,KiCad,Pcbnew,8.0.6*
G04 #@! TF.CreationDate,2024-12-04T19:19:15+01:00*
G04 #@! TF.ProjectId,Shield_Frequency_meter_STM32,53686965-6c64-45f4-9672-657175656e63,rev?*
G04 #@! TF.SameCoordinates,Original*
G04 #@! TF.FileFunction,Copper,L2,Bot*
G04 #@! TF.FilePolarity,Positive*
%FSLAX46Y46*%
G04 Gerber Fmt 4.6, Leading zero omitted, Abs format (unit mm)*
G04 Created by KiCad (PCBNEW 8.0.6) date 2024-12-04 19:19:15*
%MOMM*%
%LPD*%
G01*
G04 APERTURE LIST*
G04 #@! TA.AperFunction,ComponentPad*
%ADD10R,1.700000X1.700000*%
G04 #@! TD*
G04 #@! TA.AperFunction,ComponentPad*
%ADD11O,1.700000X1.700000*%
G04 #@! TD*
G04 #@! TA.AperFunction,ComponentPad*
%ADD12C,1.700000*%
G04 #@! TD*
G04 #@! TA.AperFunction,ComponentPad*
%ADD13O,2.500000X1.600000*%
G04 #@! TD*
G04 #@! TA.AperFunction,ComponentPad*
%ADD14O,7.000000X3.500000*%
G04 #@! TD*
G04 #@! TA.AperFunction,ViaPad*
%ADD15C,0.600000*%
G04 #@! TD*
G04 #@! TA.AperFunction,Conductor*
%ADD16C,0.254000*%
G04 #@! TD*
G04 APERTURE END LIST*
D10*
X127940000Y-97460000D03*
D11*
X130480000Y-97460000D03*
X133020000Y-97460000D03*
X135560000Y-97460000D03*
X138100000Y-97460000D03*
X140640000Y-97460000D03*
X143180000Y-97460000D03*
X145720000Y-97460000D03*
D10*
X150800000Y-97460000D03*
D11*
X153340000Y-97460000D03*
X155880000Y-97460000D03*
X158420000Y-97460000D03*
X160960000Y-97460000D03*
X163500000Y-97460000D03*
D10*
X118796000Y-49200000D03*
D11*
X121336000Y-49200000D03*
X123876000Y-49200000D03*
X126416000Y-49200000D03*
X128956000Y-49200000D03*
X131496000Y-49200000D03*
X134036000Y-49200000D03*
X136576000Y-49200000D03*
X139116000Y-49200000D03*
X141656000Y-49200000D03*
D10*
X145720000Y-49200000D03*
D11*
X148260000Y-49200000D03*
X150800000Y-49200000D03*
X153340000Y-49200000D03*
X155880000Y-49200000D03*
X158420000Y-49200000D03*
X160960000Y-49200000D03*
X163500000Y-49200000D03*
D10*
X123000000Y-97500000D03*
D11*
X120460000Y-97500000D03*
D12*
X137000000Y-53600000D03*
D11*
X150200000Y-71200000D03*
D10*
X128100000Y-90450000D03*
D11*
X125560000Y-90450000D03*
X123020000Y-90450000D03*
D13*
X155670000Y-74580000D03*
D14*
X160750000Y-69500000D03*
D13*
X155670000Y-72040000D03*
D14*
X160750000Y-79660000D03*
D12*
X137000000Y-62400000D03*
D15*
X144050000Y-81000000D03*
X133700000Y-87650000D03*
X142850000Y-86550000D03*
X146550000Y-57650000D03*
X153100000Y-59800000D03*
X151200000Y-57150000D03*
X142950000Y-71350000D03*
X149350000Y-68600000D03*
X151150000Y-68600000D03*
D16*
X149350000Y-68600000D02*
X151150000Y-68600000D01*
G04 #@! TA.AperFunction,Conductor*
G36*
X142714075Y-97267007D02*
G01*
X142680000Y-97394174D01*
X142680000Y-97525826D01*
X142714075Y-97652993D01*
X142746988Y-97710000D01*
X141073012Y-97710000D01*
X141105925Y-97652993D01*
X141140000Y-97525826D01*
X141140000Y-97394174D01*
X141105925Y-97267007D01*
X141073012Y-97210000D01*
X142746988Y-97210000D01*
X142714075Y-97267007D01*
G37*
G04 #@! TD.AperFunction*
G04 #@! TA.AperFunction,Conductor*
G36*
X114826900Y-47180185D02*
G01*
X114872655Y-47232989D01*
X114882599Y-47302147D01*
X114853574Y-47365703D01*
X114794796Y-47403477D01*
X114791999Y-47404262D01*
X114725803Y-47422000D01*
X114643895Y-47443947D01*
X114419794Y-47536773D01*
X114419785Y-47536777D01*
X114209706Y-47658067D01*
X114017263Y-47805733D01*
X114017256Y-47805739D01*
X113845739Y-47977256D01*
X113845733Y-47977263D01*
X113698067Y-48169706D01*
X113576777Y-48379785D01*
X113576773Y-48379794D01*
X113483947Y-48603895D01*
X113421161Y-48838214D01*
X113389500Y-49078711D01*
X113389500Y-49321288D01*
X113421161Y-49561785D01*
X113483947Y-49796104D01*
X113576773Y-50020205D01*
X113576777Y-50020214D01*
X113586623Y-50037268D01*
X113698064Y-50230289D01*
X113698066Y-50230292D01*
X113698067Y-50230293D01*
X113845733Y-50422736D01*
X113845739Y-50422743D01*
X114017256Y-50594260D01*
X114017262Y-50594265D01*
X114209711Y-50741936D01*
X114419788Y-50863224D01*
X114643900Y-50956054D01*
X114878211Y-51018838D01*
X115058586Y-51042584D01*
X115118711Y-51050500D01*
X115118712Y-51050500D01*
X115361289Y-51050500D01*
X115409388Y-51044167D01*
X115601789Y-51018838D01*
X115836100Y-50956054D01*
X116060212Y-50863224D01*
X116270289Y-50741936D01*
X116462738Y-50594265D01*
X116634265Y-50422738D01*
X116781936Y-50230289D01*
X116903224Y-50020212D01*
X116996054Y-49796100D01*
X117058838Y-49561789D01*
X117090500Y-49321288D01*
X117090500Y-49078712D01*
X117058838Y-48838211D01*
X116996054Y-48603900D01*
X116903224Y-48379788D01*
X116857935Y-48301345D01*
X117437500Y-48301345D01*
X117437500Y-50098654D01*
X117444011Y-50159202D01*
X117444011Y-50159204D01*
X117495111Y-50296204D01*
X117582739Y-50413261D01*
X117699796Y-50500889D01*
X117836799Y-50551989D01*
X117864050Y-50554918D01*
X117897345Y-50558499D01*
X117897362Y-50558500D01*
X119694638Y-50558500D01*
X119694654Y-50558499D01*
X119721692Y-50555591D01*
X119755201Y-50551989D01*
X119892204Y-50500889D01*
X120009261Y-50413261D01*
X120096889Y-50296204D01*
X120142138Y-50174887D01*
X120184009Y-50118956D01*
X120249474Y-50094539D01*
X120317746Y-50109391D01*
X120349545Y-50134236D01*
X120412760Y-50202906D01*
X120590424Y-50341189D01*
X120590425Y-50341189D01*
X120590427Y-50341191D01*
X120650314Y-50373600D01*
X120788426Y-50448342D01*
X121001365Y-50521444D01*
X121223431Y-50558500D01*
X121448569Y-50558500D01*
X121670635Y-50521444D01*
X121883574Y-50448342D01*
X122081576Y-50341189D01*
X122259240Y-50202906D01*
X122380594Y-50071082D01*
X122411715Y-50037276D01*
X122411715Y-50037275D01*
X122411722Y-50037268D01*
X122502193Y-49898790D01*
X122555338Y-49853437D01*
X122624569Y-49844013D01*
X122687905Y-49873515D01*
X122709804Y-49898787D01*
X122800278Y-50037268D01*
X122800283Y-50037273D01*
X122800284Y-50037276D01*
X122926968Y-50174889D01*
X122952760Y-50202906D01*
X123130424Y-50341189D01*
X123130425Y-50341189D01*
X123130427Y-50341191D01*
X123190314Y-50373600D01*
X123328426Y-50448342D01*
X123541365Y-50521444D01*
X123763431Y-50558500D01*
X123988569Y-50558500D01*
X124210635Y-50521444D01*
X124423574Y-50448342D01*
X124621576Y-50341189D01*
X124799240Y-50202906D01*
X124920594Y-50071082D01*
X124951715Y-50037276D01*
X124951715Y-50037275D01*
X124951722Y-50037268D01*
X125045749Y-49893347D01*
X125098894Y-49847994D01*
X125168125Y-49838570D01*
X125231461Y-49868072D01*
X125251130Y-49890048D01*
X125377890Y-50071078D01*
X125544917Y-50238105D01*
X125738421Y-50373600D01*
X125952507Y-50473429D01*
X125952516Y-50473433D01*
X126166000Y-50530634D01*
X126166000Y-49633012D01*
X126223007Y-49665925D01*
X126350174Y-49700000D01*
X126481826Y-49700000D01*
X126608993Y-49665925D01*
X126666000Y-49633012D01*
X126666000Y-50530633D01*
X126879483Y-50473433D01*
X126879492Y-50473429D01*
X127093578Y-50373600D01*
X127287082Y-50238105D01*
X127454105Y-50071082D01*
X127580868Y-49890048D01*
X127635445Y-49846423D01*
X127704944Y-49839231D01*
X127767298Y-49870753D01*
X127786251Y-49893350D01*
X127880276Y-50037265D01*
X127880284Y-50037276D01*
X128006968Y-50174889D01*
X128032760Y-50202906D01*
X128210424Y-50341189D01*
X128210425Y-50341189D01*
X128210427Y-50341191D01*
X128270314Y-50373600D01*
X128408426Y-50448342D01*
X128621365Y-50521444D01*
X128843431Y-50558500D01*
X129068569Y-50558500D01*
X129290635Y-50521444D01*
X129503574Y-50448342D01*
X129701576Y-50341189D01*
X129879240Y-50202906D01*
X130000594Y-50071082D01*
X130031715Y-50037276D01*
X130031715Y-50037275D01*
X130031722Y-50037268D01*
X130122193Y-49898790D01*
X130175338Y-49853437D01*
X130244569Y-49844013D01*
X130307905Y-49873515D01*
X130329804Y-49898787D01*
X130420278Y-50037268D01*
X130420283Y-50037273D01*
X130420284Y-50037276D01*
X130546968Y-50174889D01*
X130572760Y-50202906D01*
X130750424Y-50341189D01*
X130750425Y-50341189D01*
X130750427Y-50341191D01*
X130810314Y-50373600D01*
X130948426Y-50448342D01*
X131161365Y-50521444D01*
X131383431Y-50558500D01*
X131608569Y-50558500D01*
X131830635Y-50521444D01*
X132043574Y-50448342D01*
X132241576Y-50341189D01*
X132419240Y-50202906D01*
X132540594Y-50071082D01*
X132571715Y-50037276D01*
X132571715Y-50037275D01*
X132571722Y-50037268D01*
X132662193Y-49898790D01*
X132715338Y-49853437D01*
X132784569Y-49844013D01*
X132847905Y-49873515D01*
X132869804Y-49898787D01*
X132960278Y-50037268D01*
X132960283Y-50037273D01*
X132960284Y-50037276D01*
X133086968Y-50174889D01*
X133112760Y-50202906D01*
X133290424Y-50341189D01*
X133290425Y-50341189D01*
X133290427Y-50341191D01*
X133350314Y-50373600D01*
X133488426Y-50448342D01*
X133701365Y-50521444D01*
X133923431Y-50558500D01*
X134148569Y-50558500D01*
X134370635Y-50521444D01*
X134583574Y-50448342D01*
X134781576Y-50341189D01*
X134959240Y-50202906D01*
X135080594Y-50071082D01*
X135111715Y-50037276D01*
X135111715Y-50037275D01*
X135111722Y-50037268D01*
X135202193Y-49898790D01*
X135255338Y-49853437D01*
X135324569Y-49844013D01*
X135387905Y-49873515D01*
X135409804Y-49898787D01*
X135500278Y-50037268D01*
X135500283Y-50037273D01*
X135500284Y-50037276D01*
X135626968Y-50174889D01*
X135652760Y-50202906D01*
X135830424Y-50341189D01*
X135830425Y-50341189D01*
X135830427Y-50341191D01*
X135890314Y-50373600D01*
X136028426Y-50448342D01*
X136241365Y-50521444D01*
X136463431Y-50558500D01*
X136688569Y-50558500D01*
X136910635Y-50521444D01*
X137123574Y-50448342D01*
X137321576Y-50341189D01*
X137499240Y-50202906D01*
X137620594Y-50071082D01*
X137651715Y-50037276D01*
X137651715Y-50037275D01*
X137651722Y-50037268D01*
X137742193Y-49898790D01*
X137795338Y-49853437D01*
X137864569Y-49844013D01*
X137927905Y-49873515D01*
X137949804Y-49898787D01*
X138040278Y-50037268D01*
X138040283Y-50037273D01*
X138040284Y-50037276D01*
X138166968Y-50174889D01*
X138192760Y-50202906D01*
X138370424Y-50341189D01*
X138370425Y-50341189D01*
X138370427Y-50341191D01*
X138430314Y-50373600D01*
X138568426Y-50448342D01*
X138781365Y-50521444D01*
X139003431Y-50558500D01*
X139228569Y-50558500D01*
X139450635Y-50521444D01*
X139663574Y-50448342D01*
X139861576Y-50341189D01*
X140039240Y-50202906D01*
X140160594Y-50071082D01*
X140191715Y-50037276D01*
X140191715Y-50037275D01*
X140191722Y-50037268D01*
X140282193Y-49898790D01*
X140335338Y-49853437D01*
X140404569Y-49844013D01*
X140467905Y-49873515D01*
X140489804Y-49898787D01*
X140580278Y-50037268D01*
X140580283Y-50037273D01*
X140580284Y-50037276D01*
X140706968Y-50174889D01*
X140732760Y-50202906D01*
X140910424Y-50341189D01*
X140910425Y-50341189D01*
X140910427Y-50341191D01*
X140970314Y-50373600D01*
X141108426Y-50448342D01*
X141321365Y-50521444D01*
X141543431Y-50558500D01*
X141768569Y-50558500D01*
X141990635Y-50521444D01*
X142203574Y-50448342D01*
X142401576Y-50341189D01*
X142579240Y-50202906D01*
X142700594Y-50071082D01*
X142731715Y-50037276D01*
X142731717Y-50037273D01*
X142731722Y-50037268D01*
X142854860Y-49848791D01*
X142945296Y-49642616D01*
X143000564Y-49424368D01*
X143009106Y-49321288D01*
X143019156Y-49200005D01*
X143019156Y-49199994D01*
X143000565Y-48975640D01*
X143000563Y-48975628D01*
X142988447Y-48927784D01*
X142945296Y-48757384D01*
X142854860Y-48551209D01*
X142838706Y-48526484D01*
X142731723Y-48362734D01*
X142731715Y-48362723D01*
X142579243Y-48197097D01*
X142579238Y-48197092D01*
X142401577Y-48058812D01*
X142401572Y-48058808D01*
X142203580Y-47951661D01*
X142203577Y-47951659D01*
X142203574Y-47951658D01*
X142203571Y-47951657D01*
X142203569Y-47951656D01*
X141990637Y-47878556D01*
X141768569Y-47841500D01*
X141543431Y-47841500D01*
X141321362Y-47878556D01*
X141108430Y-47951656D01*
X141108419Y-47951661D01*
X140910427Y-48058808D01*
X140910422Y-48058812D01*
X140732761Y-48197092D01*
X140732756Y-48197097D01*
X140580284Y-48362723D01*
X140580276Y-48362734D01*
X140489808Y-48501206D01*
X140436662Y-48546562D01*
X140367431Y-48555986D01*
X140304095Y-48526484D01*
X140282192Y-48501206D01*
X140191723Y-48362734D01*
X140191715Y-48362723D01*
X140039243Y-48197097D01*
X140039238Y-48197092D01*
X139861577Y-48058812D01*
X139861572Y-48058808D01*
X139663580Y-47951661D01*
X139663577Y-47951659D01*
X139663574Y-47951658D01*
X139663571Y-47951657D01*
X139663569Y-47951656D01*
X139450637Y-47878556D01*
X139228569Y-47841500D01*
X139003431Y-47841500D01*
X138781362Y-47878556D01*
X138568430Y-47951656D01*
X138568419Y-47951661D01*
X138370427Y-48058808D01*
X138370422Y-48058812D01*
X138192761Y-48197092D01*
X138192756Y-48197097D01*
X138040284Y-48362723D01*
X138040276Y-48362734D01*
X137949808Y-48501206D01*
X137896662Y-48546562D01*
X137827431Y-48555986D01*
X137764095Y-48526484D01*
X137742192Y-48501206D01*
X137651723Y-48362734D01*
X137651715Y-48362723D01*
X137499243Y-48197097D01*
X137499238Y-48197092D01*
X137321577Y-48058812D01*
X137321572Y-48058808D01*
X137123580Y-47951661D01*
X137123577Y-47951659D01*
X137123574Y-47951658D01*
X137123571Y-47951657D01*
X137123569Y-47951656D01*
X136910637Y-47878556D01*
X136688569Y-47841500D01*
X136463431Y-47841500D01*
X136241362Y-47878556D01*
X136028430Y-47951656D01*
X136028419Y-47951661D01*
X135830427Y-48058808D01*
X135830422Y-48058812D01*
X135652761Y-48197092D01*
X135652756Y-48197097D01*
X135500284Y-48362723D01*
X135500276Y-48362734D01*
X135409808Y-48501206D01*
X135356662Y-48546562D01*
X135287431Y-48555986D01*
X135224095Y-48526484D01*
X135202192Y-48501206D01*
X135111723Y-48362734D01*
X135111715Y-48362723D01*
X134959243Y-48197097D01*
X134959238Y-48197092D01*
X134781577Y-48058812D01*
X134781572Y-48058808D01*
X134583580Y-47951661D01*
X134583577Y-47951659D01*
X134583574Y-47951658D01*
X134583571Y-47951657D01*
X134583569Y-47951656D01*
X134370637Y-47878556D01*
X134148569Y-47841500D01*
X133923431Y-47841500D01*
X133701362Y-47878556D01*
X133488430Y-47951656D01*
X133488419Y-47951661D01*
X133290427Y-48058808D01*
X133290422Y-48058812D01*
X133112761Y-48197092D01*
X133112756Y-48197097D01*
X132960284Y-48362723D01*
X132960276Y-48362734D01*
X132869808Y-48501206D01*
X132816662Y-48546562D01*
X132747431Y-48555986D01*
X132684095Y-48526484D01*
X132662192Y-48501206D01*
X132571723Y-48362734D01*
X132571715Y-48362723D01*
X132419243Y-48197097D01*
X132419238Y-48197092D01*
X132241577Y-48058812D01*
X132241572Y-48058808D01*
X132043580Y-47951661D01*
X132043577Y-47951659D01*
X132043574Y-47951658D01*
X132043571Y-47951657D01*
X132043569Y-47951656D01*
X131830637Y-47878556D01*
X131608569Y-47841500D01*
X131383431Y-47841500D01*
X131161362Y-47878556D01*
X130948430Y-47951656D01*
X130948419Y-47951661D01*
X130750427Y-48058808D01*
X130750422Y-48058812D01*
X130572761Y-48197092D01*
X130572756Y-48197097D01*
X130420284Y-48362723D01*
X130420276Y-48362734D01*
X130329808Y-48501206D01*
X130276662Y-48546562D01*
X130207431Y-48555986D01*
X130144095Y-48526484D01*
X130122192Y-48501206D01*
X130031723Y-48362734D01*
X130031715Y-48362723D01*
X129879243Y-48197097D01*
X129879238Y-48197092D01*
X129701577Y-48058812D01*
X129701572Y-48058808D01*
X129503580Y-47951661D01*
X129503577Y-47951659D01*
X129503574Y-47951658D01*
X129503571Y-47951657D01*
X129503569Y-47951656D01*
X129290637Y-47878556D01*
X129068569Y-47841500D01*
X128843431Y-47841500D01*
X128621362Y-47878556D01*
X128408430Y-47951656D01*
X128408419Y-47951661D01*
X128210427Y-48058808D01*
X128210422Y-48058812D01*
X128032761Y-48197092D01*
X128032756Y-48197097D01*
X127880284Y-48362723D01*
X127880276Y-48362734D01*
X127786251Y-48506650D01*
X127733105Y-48552007D01*
X127663873Y-48561430D01*
X127600538Y-48531928D01*
X127580868Y-48509951D01*
X127454113Y-48328926D01*
X127454108Y-48328920D01*
X127287082Y-48161894D01*
X127093578Y-48026399D01*
X126879492Y-47926570D01*
X126879486Y-47926567D01*
X126666000Y-47869364D01*
X126666000Y-48766988D01*
X126608993Y-48734075D01*
X126481826Y-48700000D01*
X126350174Y-48700000D01*
X126223007Y-48734075D01*
X126166000Y-48766988D01*
X126166000Y-47869364D01*
X126165999Y-47869364D01*
X125952513Y-47926567D01*
X125952507Y-47926570D01*
X125738422Y-48026399D01*
X125738420Y-48026400D01*
X125544926Y-48161886D01*
X125544920Y-48161891D01*
X125377891Y-48328920D01*
X125377890Y-48328922D01*
X125251131Y-48509952D01*
X125196554Y-48553577D01*
X125127055Y-48560769D01*
X125064701Y-48529247D01*
X125045752Y-48506656D01*
X124951722Y-48362732D01*
X124951715Y-48362725D01*
X124951715Y-48362723D01*
X124799243Y-48197097D01*
X124799238Y-48197092D01*
X124621577Y-48058812D01*
X124621572Y-48058808D01*
X124423580Y-47951661D01*
X124423577Y-47951659D01*
X124423574Y-47951658D01*
X124423571Y-47951657D01*
X124423569Y-47951656D01*
X124210637Y-47878556D01*
X123988569Y-47841500D01*
X123763431Y-47841500D01*
X123541362Y-47878556D01*
X123328430Y-47951656D01*
X123328419Y-47951661D01*
X123130427Y-48058808D01*
X123130422Y-48058812D01*
X122952761Y-48197092D01*
X122952756Y-48197097D01*
X122800284Y-48362723D01*
X122800276Y-48362734D01*
X122709808Y-48501206D01*
X122656662Y-48546562D01*
X122587431Y-48555986D01*
X122524095Y-48526484D01*
X122502192Y-48501206D01*
X122411723Y-48362734D01*
X122411715Y-48362723D01*
X122259243Y-48197097D01*
X122259238Y-48197092D01*
X122081577Y-48058812D01*
X122081572Y-48058808D01*
X121883580Y-47951661D01*
X121883577Y-47951659D01*
X121883574Y-47951658D01*
X121883571Y-47951657D01*
X121883569Y-47951656D01*
X121670637Y-47878556D01*
X121448569Y-47841500D01*
X121223431Y-47841500D01*
X121001362Y-47878556D01*
X120788430Y-47951656D01*
X120788419Y-47951661D01*
X120590427Y-48058808D01*
X120590422Y-48058812D01*
X120412761Y-48197092D01*
X120349548Y-48265760D01*
X120289661Y-48301750D01*
X120219823Y-48299649D01*
X120162207Y-48260124D01*
X120142138Y-48225110D01*
X120096889Y-48103796D01*
X120063214Y-48058812D01*
X120009261Y-47986739D01*
X119892204Y-47899111D01*
X119755203Y-47848011D01*
X119694654Y-47841500D01*
X119694638Y-47841500D01*
X117897362Y-47841500D01*
X117897345Y-47841500D01*
X117836797Y-47848011D01*
X117836795Y-47848011D01*
X117699795Y-47899111D01*
X117582739Y-47986739D01*
X117495111Y-48103795D01*
X117444011Y-48240795D01*
X117444011Y-48240797D01*
X117437500Y-48301345D01*
X116857935Y-48301345D01*
X116781936Y-48169711D01*
X116634265Y-47977262D01*
X116634260Y-47977256D01*
X116462743Y-47805739D01*
X116462736Y-47805733D01*
X116270293Y-47658067D01*
X116270292Y-47658066D01*
X116270289Y-47658064D01*
X116060212Y-47536776D01*
X116060205Y-47536773D01*
X115836104Y-47443947D01*
X115790610Y-47431757D01*
X115688043Y-47404273D01*
X115628385Y-47367910D01*
X115597856Y-47305063D01*
X115606151Y-47235687D01*
X115650636Y-47181809D01*
X115717188Y-47160535D01*
X115720139Y-47160500D01*
X163241324Y-47160500D01*
X163308363Y-47180185D01*
X163329005Y-47196819D01*
X163772315Y-47640129D01*
X163805800Y-47701452D01*
X163800816Y-47771144D01*
X163758944Y-47827077D01*
X163693480Y-47851494D01*
X163664226Y-47850119D01*
X163612570Y-47841500D01*
X163612569Y-47841500D01*
X163387431Y-47841500D01*
X163165362Y-47878556D01*
X162952430Y-47951656D01*
X162952419Y-47951661D01*
X162754427Y-48058808D01*
X162754422Y-48058812D01*
X162576761Y-48197092D01*
X162576756Y-48197097D01*
X162424284Y-48362723D01*
X162424276Y-48362734D01*
X162333808Y-48501206D01*
X162280662Y-48546562D01*
X162211431Y-48555986D01*
X162148095Y-48526484D01*
X162126192Y-48501206D01*
X162035723Y-48362734D01*
X162035715Y-48362723D01*
X161883243Y-48197097D01*
X161883238Y-48197092D01*
X161705577Y-48058812D01*
X161705572Y-48058808D01*
X161507580Y-47951661D01*
X161507577Y-47951659D01*
X161507574Y-47951658D01*
X161507571Y-47951657D01*
X161507569Y-47951656D01*
X161294637Y-47878556D01*
X161072569Y-47841500D01*
X160847431Y-47841500D01*
X160625362Y-47878556D01*
X160412430Y-47951656D01*
X160412419Y-47951661D01*
X160214427Y-48058808D01*
X160214422Y-48058812D01*
X160036761Y-48197092D01*
X160036756Y-48197097D01*
X159884284Y-48362723D01*
X159884276Y-48362734D01*
X159793808Y-48501206D01*
X159740662Y-48546562D01*
X159671431Y-48555986D01*
X159608095Y-48526484D01*
X159586192Y-48501206D01*
X159495723Y-48362734D01*
X159495715Y-48362723D01*
X159343243Y-48197097D01*
X159343238Y-48197092D01*
X159165577Y-48058812D01*
X159165572Y-48058808D01*
X158967580Y-47951661D01*
X158967577Y-47951659D01*
X158967574Y-47951658D01*
X158967571Y-47951657D01*
X158967569Y-47951656D01*
X158754637Y-47878556D01*
X158532569Y-47841500D01*
X158307431Y-47841500D01*
X158085362Y-47878556D01*
X157872430Y-47951656D01*
X157872419Y-47951661D01*
X157674427Y-48058808D01*
X157674422Y-48058812D01*
X157496761Y-48197092D01*
X157496756Y-48197097D01*
X157344284Y-48362723D01*
X157344276Y-48362734D01*
X157253808Y-48501206D01*
X157200662Y-48546562D01*
X157131431Y-48555986D01*
X157068095Y-48526484D01*
X157046192Y-48501206D01*
X156955723Y-48362734D01*
X156955715Y-48362723D01*
X156803243Y-48197097D01*
X156803238Y-48197092D01*
X156625577Y-48058812D01*
X156625572Y-48058808D01*
X156427580Y-47951661D01*
X156427577Y-47951659D01*
X156427574Y-47951658D01*
X156427571Y-47951657D01*
X156427569Y-47951656D01*
X156214637Y-47878556D01*
X155992569Y-47841500D01*
X155767431Y-47841500D01*
X155545362Y-47878556D01*
X155332430Y-47951656D01*
X155332419Y-47951661D01*
X155134427Y-48058808D01*
X155134422Y-48058812D01*
X154956761Y-48197092D01*
X154956756Y-48197097D01*
X154804284Y-48362723D01*
X154804276Y-48362734D01*
X154713808Y-48501206D01*
X154660662Y-48546562D01*
X154591431Y-48555986D01*
X154528095Y-48526484D01*
X154506192Y-48501206D01*
X154415723Y-48362734D01*
X154415715Y-48362723D01*
X154263243Y-48197097D01*
X154263238Y-48197092D01*
X154085577Y-48058812D01*
X154085572Y-48058808D01*
X153887580Y-47951661D01*
X153887577Y-47951659D01*
X153887574Y-47951658D01*
X153887571Y-47951657D01*
X153887569Y-47951656D01*
X153674637Y-47878556D01*
X153452569Y-47841500D01*
X153227431Y-47841500D01*
X153005362Y-47878556D01*
X152792430Y-47951656D01*
X152792419Y-47951661D01*
X152594427Y-48058808D01*
X152594422Y-48058812D01*
X152416761Y-48197092D01*
X152416756Y-48197097D01*
X152264284Y-48362723D01*
X152264276Y-48362734D01*
X152173808Y-48501206D01*
X152120662Y-48546562D01*
X152051431Y-48555986D01*
X151988095Y-48526484D01*
X151966192Y-48501206D01*
X151875723Y-48362734D01*
X151875715Y-48362723D01*
X151723243Y-48197097D01*
X151723238Y-48197092D01*
X151545577Y-48058812D01*
X151545572Y-48058808D01*
X151347580Y-47951661D01*
X151347577Y-47951659D01*
X151347574Y-47951658D01*
X151347571Y-47951657D01*
X151347569Y-47951656D01*
X151134637Y-47878556D01*
X150912569Y-47841500D01*
X150687431Y-47841500D01*
X150465362Y-47878556D01*
X150252430Y-47951656D01*
X150252419Y-47951661D01*
X150054427Y-48058808D01*
X150054422Y-48058812D01*
X149876761Y-48197092D01*
X149876756Y-48197097D01*
X149724284Y-48362723D01*
X149724276Y-48362734D01*
X149633808Y-48501206D01*
X149580662Y-48546562D01*
X149511431Y-48555986D01*
X149448095Y-48526484D01*
X149426192Y-48501206D01*
X149335723Y-48362734D01*
X149335715Y-48362723D01*
X149183243Y-48197097D01*
X149183238Y-48197092D01*
X149005577Y-48058812D01*
X149005572Y-48058808D01*
X148807580Y-47951661D01*
X148807577Y-47951659D01*
X148807574Y-47951658D01*
X148807571Y-47951657D01*
X148807569Y-47951656D01*
X148594637Y-47878556D01*
X148372569Y-47841500D01*
X148147431Y-47841500D01*
X147925362Y-47878556D01*
X147712430Y-47951656D01*
X147712419Y-47951661D01*
X147514427Y-48058808D01*
X147514422Y-48058812D01*
X147336761Y-48197092D01*
X147273548Y-48265760D01*
X147213661Y-48301750D01*
X147143823Y-48299649D01*
X147086207Y-48260124D01*
X147066138Y-48225110D01*
X147020889Y-48103796D01*
X146987214Y-48058812D01*
X146933261Y-47986739D01*
X146816204Y-47899111D01*
X146679203Y-47848011D01*
X146618654Y-47841500D01*
X146618638Y-47841500D01*
X144821362Y-47841500D01*
X144821345Y-47841500D01*
X144760797Y-47848011D01*
X144760795Y-47848011D01*
X144623795Y-47899111D01*
X144506739Y-47986739D01*
X144419111Y-48103795D01*
X144368011Y-48240795D01*
X144368011Y-48240797D01*
X144361500Y-48301345D01*
X144361500Y-50098654D01*
X144368011Y-50159202D01*
X144368011Y-50159204D01*
X144419111Y-50296204D01*
X144506739Y-50413261D01*
X144623796Y-50500889D01*
X144760799Y-50551989D01*
X144788050Y-50554918D01*
X144821345Y-50558499D01*
X144821362Y-50558500D01*
X146618638Y-50558500D01*
X146618654Y-50558499D01*
X146645692Y-50555591D01*
X146679201Y-50551989D01*
X146816204Y-50500889D01*
X146933261Y-50413261D01*
X147020889Y-50296204D01*
X147066138Y-50174887D01*
X147108009Y-50118956D01*
X147173474Y-50094539D01*
X147241746Y-50109391D01*
X147273545Y-50134236D01*
X147336760Y-50202906D01*
X147514424Y-50341189D01*
X147514425Y-50341189D01*
X147514427Y-50341191D01*
X147574314Y-50373600D01*
X147712426Y-50448342D01*
X147925365Y-50521444D01*
X148147431Y-50558500D01*
X148372569Y-50558500D01*
X148594635Y-50521444D01*
X148807574Y-50448342D01*
X149005576Y-50341189D01*
X149183240Y-50202906D01*
X149304594Y-50071082D01*
X149335715Y-50037276D01*
X149335715Y-50037275D01*
X149335722Y-50037268D01*
X149426193Y-49898790D01*
X149479338Y-49853437D01*
X149548569Y-49844013D01*
X149611905Y-49873515D01*
X149633804Y-49898787D01*
X149724278Y-50037268D01*
X149724283Y-50037273D01*
X149724284Y-50037276D01*
X149850968Y-50174889D01*
X149876760Y-50202906D01*
X150054424Y-50341189D01*
X150054425Y-50341189D01*
X150054427Y-50341191D01*
X150114314Y-50373600D01*
X150252426Y-50448342D01*
X150465365Y-50521444D01*
X150687431Y-50558500D01*
X150912569Y-50558500D01*
X151134635Y-50521444D01*
X151347574Y-50448342D01*
X151545576Y-50341189D01*
X151723240Y-50202906D01*
X151844594Y-50071082D01*
X151875715Y-50037276D01*
X151875715Y-50037275D01*
X151875722Y-50037268D01*
X151966193Y-49898790D01*
X152019338Y-49853437D01*
X152088569Y-49844013D01*
X152151905Y-49873515D01*
X152173804Y-49898787D01*
X152264278Y-50037268D01*
X152264283Y-50037273D01*
X152264284Y-50037276D01*
X152390968Y-50174889D01*
X152416760Y-50202906D01*
X152594424Y-50341189D01*
X152594425Y-50341189D01*
X152594427Y-50341191D01*
X152654314Y-50373600D01*
X152792426Y-50448342D01*
X153005365Y-50521444D01*
X153227431Y-50558500D01*
X153452569Y-50558500D01*
X153674635Y-50521444D01*
X153887574Y-50448342D01*
X154085576Y-50341189D01*
X154263240Y-50202906D01*
X154384594Y-50071082D01*
X154415715Y-50037276D01*
X154415715Y-50037275D01*
X154415722Y-50037268D01*
X154506193Y-49898790D01*
X154559338Y-49853437D01*
X154628569Y-49844013D01*
X154691905Y-49873515D01*
X154713804Y-49898787D01*
X154804278Y-50037268D01*
X154804283Y-50037273D01*
X154804284Y-50037276D01*
X154930968Y-50174889D01*
X154956760Y-50202906D01*
X155134424Y-50341189D01*
X155134425Y-50341189D01*
X155134427Y-50341191D01*
X155194314Y-50373600D01*
X155332426Y-50448342D01*
X155545365Y-50521444D01*
X155767431Y-50558500D01*
X155992569Y-50558500D01*
X156214635Y-50521444D01*
X156427574Y-50448342D01*
X156625576Y-50341189D01*
X156803240Y-50202906D01*
X156924594Y-50071082D01*
X156955715Y-50037276D01*
X156955715Y-50037275D01*
X156955722Y-50037268D01*
X157046193Y-49898790D01*
X157099338Y-49853437D01*
X157168569Y-49844013D01*
X157231905Y-49873515D01*
X157253804Y-49898787D01*
X157344278Y-50037268D01*
X157344283Y-50037273D01*
X157344284Y-50037276D01*
X157470968Y-50174889D01*
X157496760Y-50202906D01*
X157674424Y-50341189D01*
X157674425Y-50341189D01*
X157674427Y-50341191D01*
X157734314Y-50373600D01*
X157872426Y-50448342D01*
X158085365Y-50521444D01*
X158307431Y-50558500D01*
X158532569Y-50558500D01*
X158754635Y-50521444D01*
X158967574Y-50448342D01*
X159165576Y-50341189D01*
X159343240Y-50202906D01*
X159464594Y-50071082D01*
X159495715Y-50037276D01*
X159495715Y-50037275D01*
X159495722Y-50037268D01*
X159586193Y-49898790D01*
X159639338Y-49853437D01*
X159708569Y-49844013D01*
X159771905Y-49873515D01*
X159793804Y-49898787D01*
X159884278Y-50037268D01*
X159884283Y-50037273D01*
X159884284Y-50037276D01*
X160010968Y-50174889D01*
X160036760Y-50202906D01*
X160214424Y-50341189D01*
X160214425Y-50341189D01*
X160214427Y-50341191D01*
X160274314Y-50373600D01*
X160412426Y-50448342D01*
X160625365Y-50521444D01*
X160847431Y-50558500D01*
X161072569Y-50558500D01*
X161294635Y-50521444D01*
X161507574Y-50448342D01*
X161705576Y-50341189D01*
X161883240Y-50202906D01*
X162004594Y-50071082D01*
X162035715Y-50037276D01*
X162035715Y-50037275D01*
X162035722Y-50037268D01*
X162126193Y-49898790D01*
X162179338Y-49853437D01*
X162248569Y-49844013D01*
X162311905Y-49873515D01*
X162333804Y-49898787D01*
X162424278Y-50037268D01*
X162424283Y-50037273D01*
X162424284Y-50037276D01*
X162550968Y-50174889D01*
X162576760Y-50202906D01*
X162754424Y-50341189D01*
X162754425Y-50341189D01*
X162754427Y-50341191D01*
X162814314Y-50373600D01*
X162952426Y-50448342D01*
X163165365Y-50521444D01*
X163387431Y-50558500D01*
X163612569Y-50558500D01*
X163834635Y-50521444D01*
X164047574Y-50448342D01*
X164245576Y-50341189D01*
X164423240Y-50202906D01*
X164544594Y-50071082D01*
X164575715Y-50037276D01*
X164575717Y-50037273D01*
X164575722Y-50037268D01*
X164698860Y-49848791D01*
X164789296Y-49642616D01*
X164844564Y-49424368D01*
X164853106Y-49321288D01*
X164863156Y-49200005D01*
X164863156Y-49199995D01*
X164853106Y-49078712D01*
X164848713Y-49025704D01*
X164862793Y-48957269D01*
X164911638Y-48907310D01*
X164979739Y-48891689D01*
X165045475Y-48915366D01*
X165059970Y-48927784D01*
X165503181Y-49370995D01*
X165536666Y-49432318D01*
X165539500Y-49458676D01*
X165539500Y-59425891D01*
X165573608Y-59553187D01*
X165606554Y-59610250D01*
X165639500Y-59667314D01*
X165639502Y-59667316D01*
X168043181Y-62070995D01*
X168076666Y-62132318D01*
X168079500Y-62158676D01*
X168079500Y-63959860D01*
X168059815Y-64026899D01*
X168007011Y-64072654D01*
X167937853Y-64082598D01*
X167874297Y-64053573D01*
X167836523Y-63994795D01*
X167835725Y-63991954D01*
X167796054Y-63843900D01*
X167703224Y-63619788D01*
X167581936Y-63409711D01*
X167434265Y-63217262D01*
X167434260Y-63217256D01*
X167262743Y-63045739D01*
X167262736Y-63045733D01*
X167070293Y-62898067D01*
X167070292Y-62898066D01*
X167070289Y-62898064D01*
X166860212Y-62776776D01*
X166860205Y-62776773D01*
X166636104Y-62683947D01*
X166401785Y-62621161D01*
X166161289Y-62589500D01*
X166161288Y-62589500D01*
X165918712Y-62589500D01*
X165918711Y-62589500D01*
X165678214Y-62621161D01*
X165443895Y-62683947D01*
X165219794Y-62776773D01*
X165219785Y-62776777D01*
X165009706Y-62898067D01*
X164817263Y-63045733D01*
X164817256Y-63045739D01*
X164645739Y-63217256D01*
X164645733Y-63217263D01*
X164498067Y-63409706D01*
X164376777Y-63619785D01*
X164376773Y-63619794D01*
X164283947Y-63843895D01*
X164221161Y-64078214D01*
X164189500Y-64318711D01*
X164189500Y-64561288D01*
X164221161Y-64801785D01*
X164283947Y-65036104D01*
X164376773Y-65260205D01*
X164376776Y-65260212D01*
X164498064Y-65470289D01*
X164498066Y-65470292D01*
X164498067Y-65470293D01*
X164645733Y-65662736D01*
X164645739Y-65662743D01*
X164817256Y-65834260D01*
X164817262Y-65834265D01*
X165009711Y-65981936D01*
X165219788Y-66103224D01*
X165443900Y-66196054D01*
X165678211Y-66258838D01*
X165858586Y-66282584D01*
X165918711Y-66290500D01*
X165918712Y-66290500D01*
X166161289Y-66290500D01*
X166209388Y-66284167D01*
X166401789Y-66258838D01*
X166636100Y-66196054D01*
X166860212Y-66103224D01*
X167070289Y-65981936D01*
X167262738Y-65834265D01*
X167434265Y-65662738D01*
X167581936Y-65470289D01*
X167703224Y-65260212D01*
X167796054Y-65036100D01*
X167835726Y-64888043D01*
X167872090Y-64828385D01*
X167934937Y-64797856D01*
X168004313Y-64806151D01*
X168058191Y-64850636D01*
X168079465Y-64917188D01*
X168079500Y-64920139D01*
X168079500Y-91899860D01*
X168059815Y-91966899D01*
X168007011Y-92012654D01*
X167937853Y-92022598D01*
X167874297Y-91993573D01*
X167836523Y-91934795D01*
X167835725Y-91931954D01*
X167796054Y-91783900D01*
X167703224Y-91559788D01*
X167581936Y-91349711D01*
X167434265Y-91157262D01*
X167434260Y-91157256D01*
X167262743Y-90985739D01*
X167262736Y-90985733D01*
X167070293Y-90838067D01*
X167070292Y-90838066D01*
X167070289Y-90838064D01*
X166860212Y-90716776D01*
X166860205Y-90716773D01*
X166636104Y-90623947D01*
X166401785Y-90561161D01*
X166161289Y-90529500D01*
X166161288Y-90529500D01*
X165918712Y-90529500D01*
X165918711Y-90529500D01*
X165678214Y-90561161D01*
X165443895Y-90623947D01*
X165219794Y-90716773D01*
X165219785Y-90716777D01*
X165009706Y-90838067D01*
X164817263Y-90985733D01*
X164817256Y-90985739D01*
X164645739Y-91157256D01*
X164645733Y-91157263D01*
X164498067Y-91349706D01*
X164376777Y-91559785D01*
X164376773Y-91559794D01*
X164283947Y-91783895D01*
X164221161Y-92018214D01*
X164189500Y-92258711D01*
X164189500Y-92501288D01*
X164221161Y-92741785D01*
X164283947Y-92976104D01*
X164376773Y-93200205D01*
X164376776Y-93200212D01*
X164498064Y-93410289D01*
X164498066Y-93410292D01*
X164498067Y-93410293D01*
X164645733Y-93602736D01*
X164645739Y-93602743D01*
X164817256Y-93774260D01*
X164817262Y-93774265D01*
X165009711Y-93921936D01*
X165219788Y-94043224D01*
X165443900Y-94136054D01*
X165678211Y-94198838D01*
X165858586Y-94222584D01*
X165918711Y-94230500D01*
X165918712Y-94230500D01*
X166161289Y-94230500D01*
X166209388Y-94224167D01*
X166401789Y-94198838D01*
X166636100Y-94136054D01*
X166860212Y-94043224D01*
X167070289Y-93921936D01*
X167262738Y-93774265D01*
X167434265Y-93602738D01*
X167581936Y-93410289D01*
X167703224Y-93200212D01*
X167796054Y-92976100D01*
X167835726Y-92828043D01*
X167872090Y-92768385D01*
X167934937Y-92737856D01*
X168004313Y-92746151D01*
X168058191Y-92790636D01*
X168079465Y-92857188D01*
X168079500Y-92860139D01*
X168079500Y-95931324D01*
X168059815Y-95998363D01*
X168043181Y-96019005D01*
X165639502Y-98422683D01*
X165639500Y-98422686D01*
X165573608Y-98536812D01*
X165539500Y-98664108D01*
X165539500Y-99228242D01*
X165537973Y-99247641D01*
X165529773Y-99299411D01*
X165517785Y-99336307D01*
X165498474Y-99374207D01*
X165475670Y-99405593D01*
X165445593Y-99435670D01*
X165414207Y-99458474D01*
X165376307Y-99477785D01*
X165339411Y-99489773D01*
X165309068Y-99494579D01*
X165287639Y-99497973D01*
X165268243Y-99499500D01*
X114450139Y-99499500D01*
X114383100Y-99479815D01*
X114337345Y-99427011D01*
X114327401Y-99357853D01*
X114356426Y-99294297D01*
X114415204Y-99256523D01*
X114418000Y-99255737D01*
X114566100Y-99216054D01*
X114790212Y-99123224D01*
X115000289Y-99001936D01*
X115192738Y-98854265D01*
X115364265Y-98682738D01*
X115511936Y-98490289D01*
X115633224Y-98280212D01*
X115726054Y-98056100D01*
X115788838Y-97821789D01*
X115820500Y-97581288D01*
X115820500Y-97338712D01*
X115808821Y-97249999D01*
X119129364Y-97249999D01*
X119129364Y-97250000D01*
X120026988Y-97250000D01*
X119994075Y-97307007D01*
X119960000Y-97434174D01*
X119960000Y-97565826D01*
X119994075Y-97692993D01*
X120026988Y-97750000D01*
X119129364Y-97750000D01*
X119186567Y-97963486D01*
X119186570Y-97963492D01*
X119286399Y-98177578D01*
X119421894Y-98371082D01*
X119588917Y-98538105D01*
X119782421Y-98673600D01*
X119996507Y-98773429D01*
X119996516Y-98773433D01*
X120210000Y-98830634D01*
X120210000Y-97933012D01*
X120267007Y-97965925D01*
X120394174Y-98000000D01*
X120525826Y-98000000D01*
X120652993Y-97965925D01*
X120710000Y-97933012D01*
X120710000Y-98830633D01*
X120923483Y-98773433D01*
X120923492Y-98773429D01*
X121137578Y-98673600D01*
X121331078Y-98538108D01*
X121446914Y-98422272D01*
X121508237Y-98388787D01*
X121577929Y-98393771D01*
X121633863Y-98435642D01*
X121650777Y-98466619D01*
X121699110Y-98596203D01*
X121699111Y-98596204D01*
X121786739Y-98713261D01*
X121903796Y-98800889D01*
X122040799Y-98851989D01*
X122068050Y-98854918D01*
X122101345Y-98858499D01*
X122101362Y-98858500D01*
X123898638Y-98858500D01*
X123898654Y-98858499D01*
X123925692Y-98855591D01*
X123959201Y-98851989D01*
X124096204Y-98800889D01*
X124213261Y-98713261D01*
X124300889Y-98596204D01*
X124351989Y-98459201D01*
X124356289Y-98419201D01*
X124358499Y-98398654D01*
X124358500Y-98398637D01*
X124358500Y-96601362D01*
X124358499Y-96601345D01*
X124354241Y-96561750D01*
X124354197Y-96561345D01*
X126581500Y-96561345D01*
X126581500Y-98358654D01*
X126588011Y-98419202D01*
X126588011Y-98419204D01*
X126631878Y-98536812D01*
X126639111Y-98556204D01*
X126726739Y-98673261D01*
X126843796Y-98760889D01*
X126980799Y-98811989D01*
X127008050Y-98814918D01*
X127041345Y-98818499D01*
X127041362Y-98818500D01*
X128838638Y-98818500D01*
X128838654Y-98818499D01*
X128865692Y-98815591D01*
X128899201Y-98811989D01*
X129036204Y-98760889D01*
X129153261Y-98673261D01*
X129240889Y-98556204D01*
X129286138Y-98434887D01*
X129328009Y-98378956D01*
X129393474Y-98354539D01*
X129461746Y-98369391D01*
X129493545Y-98394236D01*
X129556760Y-98462906D01*
X129734424Y-98601189D01*
X129734425Y-98601189D01*
X129734427Y-98601191D01*
X129794314Y-98633600D01*
X129932426Y-98708342D01*
X130145365Y-98781444D01*
X130367431Y-98818500D01*
X130592569Y-98818500D01*
X130814635Y-98781444D01*
X131027574Y-98708342D01*
X131225576Y-98601189D01*
X131403240Y-98462906D01*
X131524594Y-98331082D01*
X131555715Y-98297276D01*
X131555715Y-98297275D01*
X131555722Y-98297268D01*
X131646193Y-98158790D01*
X131699338Y-98113437D01*
X131768569Y-98104013D01*
X131831905Y-98133515D01*
X131853804Y-98158787D01*
X131944278Y-98297268D01*
X131944283Y-98297273D01*
X131944284Y-98297276D01*
X132070968Y-98434889D01*
X132096760Y-98462906D01*
X132274424Y-98601189D01*
X132274425Y-98601189D01*
X132274427Y-98601191D01*
X132334314Y-98633600D01*
X132472426Y-98708342D01*
X132685365Y-98781444D01*
X132907431Y-98818500D01*
X133132569Y-98818500D01*
X133354635Y-98781444D01*
X133567574Y-98708342D01*
X133765576Y-98601189D01*
X133943240Y-98462906D01*
X134064594Y-98331082D01*
X134095715Y-98297276D01*
X134095715Y-98297275D01*
X134095722Y-98297268D01*
X134186193Y-98158790D01*
X134239338Y-98113437D01*
X134308569Y-98104013D01*
X134371905Y-98133515D01*
X134393804Y-98158787D01*
X134484278Y-98297268D01*
X134484283Y-98297273D01*
X134484284Y-98297276D01*
X134610968Y-98434889D01*
X134636760Y-98462906D01*
X134814424Y-98601189D01*
X134814425Y-98601189D01*
X134814427Y-98601191D01*
X134874314Y-98633600D01*
X135012426Y-98708342D01*
X135225365Y-98781444D01*
X135447431Y-98818500D01*
X135672569Y-98818500D01*
X135894635Y-98781444D01*
X136107574Y-98708342D01*
X136305576Y-98601189D01*
X136483240Y-98462906D01*
X136604594Y-98331082D01*
X136635715Y-98297276D01*
X136635715Y-98297275D01*
X136635722Y-98297268D01*
X136726193Y-98158790D01*
X136779338Y-98113437D01*
X136848569Y-98104013D01*
X136911905Y-98133515D01*
X136933804Y-98158787D01*
X137024278Y-98297268D01*
X137024283Y-98297273D01*
X137024284Y-98297276D01*
X137150968Y-98434889D01*
X137176760Y-98462906D01*
X137354424Y-98601189D01*
X137354425Y-98601189D01*
X137354427Y-98601191D01*
X137414314Y-98633600D01*
X137552426Y-98708342D01*
X137765365Y-98781444D01*
X137987431Y-98818500D01*
X138212569Y-98818500D01*
X138434635Y-98781444D01*
X138647574Y-98708342D01*
X138845576Y-98601189D01*
X139023240Y-98462906D01*
X139144594Y-98331082D01*
X139175715Y-98297276D01*
X139175715Y-98297275D01*
X139175722Y-98297268D01*
X139269749Y-98153347D01*
X139322894Y-98107994D01*
X139392125Y-98098570D01*
X139455461Y-98128072D01*
X139475130Y-98150048D01*
X139601890Y-98331078D01*
X139768917Y-98498105D01*
X139962421Y-98633600D01*
X140176507Y-98733429D01*
X140176516Y-98733433D01*
X140390000Y-98790634D01*
X140390000Y-97893012D01*
X140447007Y-97925925D01*
X140574174Y-97960000D01*
X140705826Y-97960000D01*
X140832993Y-97925925D01*
X140890000Y-97893012D01*
X140890000Y-98790633D01*
X141103483Y-98733433D01*
X141103492Y-98733429D01*
X141317578Y-98633600D01*
X141511082Y-98498105D01*
X141678105Y-98331082D01*
X141808425Y-98144968D01*
X141863002Y-98101344D01*
X141932501Y-98094151D01*
X141994855Y-98125673D01*
X142011575Y-98144968D01*
X142141894Y-98331082D01*
X142308917Y-98498105D01*
X142502421Y-98633600D01*
X142716507Y-98733429D01*
X142716516Y-98733433D01*
X142930000Y-98790634D01*
X142930000Y-97893012D01*
X142987007Y-97925925D01*
X143114174Y-97960000D01*
X143245826Y-97960000D01*
X143372993Y-97925925D01*
X143430000Y-97893012D01*
X143430000Y-98790633D01*
X143643483Y-98733433D01*
X143643492Y-98733429D01*
X143857578Y-98633600D01*
X144051082Y-98498105D01*
X144218105Y-98331082D01*
X144344868Y-98150048D01*
X144399445Y-98106423D01*
X144468944Y-98099231D01*
X144531298Y-98130753D01*
X144550251Y-98153350D01*
X144644276Y-98297265D01*
X144644284Y-98297276D01*
X144770968Y-98434889D01*
X144796760Y-98462906D01*
X144974424Y-98601189D01*
X144974425Y-98601189D01*
X144974427Y-98601191D01*
X145034314Y-98633600D01*
X145172426Y-98708342D01*
X145385365Y-98781444D01*
X145607431Y-98818500D01*
X145832569Y-98818500D01*
X146054635Y-98781444D01*
X146267574Y-98708342D01*
X146465576Y-98601189D01*
X146643240Y-98462906D01*
X146764594Y-98331082D01*
X146795715Y-98297276D01*
X146795717Y-98297273D01*
X146795722Y-98297268D01*
X146918860Y-98108791D01*
X147009296Y-97902616D01*
X147064564Y-97684368D01*
X147074387Y-97565826D01*
X147083156Y-97460005D01*
X147083156Y-97459994D01*
X147064565Y-97235640D01*
X147064563Y-97235628D01*
X147014140Y-97036513D01*
X147009296Y-97017384D01*
X146918860Y-96811209D01*
X146902706Y-96786484D01*
X146806863Y-96639785D01*
X146795722Y-96622732D01*
X146795719Y-96622729D01*
X146795715Y-96622723D01*
X146739212Y-96561345D01*
X149441500Y-96561345D01*
X149441500Y-98358654D01*
X149448011Y-98419202D01*
X149448011Y-98419204D01*
X149491878Y-98536812D01*
X149499111Y-98556204D01*
X149586739Y-98673261D01*
X149703796Y-98760889D01*
X149840799Y-98811989D01*
X149868050Y-98814918D01*
X149901345Y-98818499D01*
X149901362Y-98818500D01*
X151698638Y-98818500D01*
X151698654Y-98818499D01*
X151725692Y-98815591D01*
X151759201Y-98811989D01*
X151896204Y-98760889D01*
X152013261Y-98673261D01*
X152100889Y-98556204D01*
X152146138Y-98434887D01*
X152188009Y-98378956D01*
X152253474Y-98354539D01*
X152321746Y-98369391D01*
X152353545Y-98394236D01*
X152416760Y-98462906D01*
X152594424Y-98601189D01*
X152594425Y-98601189D01*
X152594427Y-98601191D01*
X152654314Y-98633600D01*
X152792426Y-98708342D01*
X153005365Y-98781444D01*
X153227431Y-98818500D01*
X153452569Y-98818500D01*
X153674635Y-98781444D01*
X153887574Y-98708342D01*
X154085576Y-98601189D01*
X154263240Y-98462906D01*
X154384594Y-98331082D01*
X154415715Y-98297276D01*
X154415715Y-98297275D01*
X154415722Y-98297268D01*
X154506193Y-98158790D01*
X154559338Y-98113437D01*
X154628569Y-98104013D01*
X154691905Y-98133515D01*
X154713804Y-98158787D01*
X154804278Y-98297268D01*
X154804283Y-98297273D01*
X154804284Y-98297276D01*
X154930968Y-98434889D01*
X154956760Y-98462906D01*
X155134424Y-98601189D01*
X155134425Y-98601189D01*
X155134427Y-98601191D01*
X155194314Y-98633600D01*
X155332426Y-98708342D01*
X155545365Y-98781444D01*
X155767431Y-98818500D01*
X155992569Y-98818500D01*
X156214635Y-98781444D01*
X156427574Y-98708342D01*
X156625576Y-98601189D01*
X156803240Y-98462906D01*
X156924594Y-98331082D01*
X156955715Y-98297276D01*
X156955715Y-98297275D01*
X156955722Y-98297268D01*
X157046193Y-98158790D01*
X157099338Y-98113437D01*
X157168569Y-98104013D01*
X157231905Y-98133515D01*
X157253804Y-98158787D01*
X157344278Y-98297268D01*
X157344283Y-98297273D01*
X157344284Y-98297276D01*
X157470968Y-98434889D01*
X157496760Y-98462906D01*
X157674424Y-98601189D01*
X157674425Y-98601189D01*
X157674427Y-98601191D01*
X157734314Y-98633600D01*
X157872426Y-98708342D01*
X158085365Y-98781444D01*
X158307431Y-98818500D01*
X158532569Y-98818500D01*
X158754635Y-98781444D01*
X158967574Y-98708342D01*
X159165576Y-98601189D01*
X159343240Y-98462906D01*
X159464594Y-98331082D01*
X159495715Y-98297276D01*
X159495715Y-98297275D01*
X159495722Y-98297268D01*
X159586193Y-98158790D01*
X159639338Y-98113437D01*
X159708569Y-98104013D01*
X159771905Y-98133515D01*
X159793804Y-98158787D01*
X159884278Y-98297268D01*
X159884283Y-98297273D01*
X159884284Y-98297276D01*
X160010968Y-98434889D01*
X160036760Y-98462906D01*
X160214424Y-98601189D01*
X160214425Y-98601189D01*
X160214427Y-98601191D01*
X160274314Y-98633600D01*
X160412426Y-98708342D01*
X160625365Y-98781444D01*
X160847431Y-98818500D01*
X161072569Y-98818500D01*
X161294635Y-98781444D01*
X161507574Y-98708342D01*
X161705576Y-98601189D01*
X161883240Y-98462906D01*
X162004594Y-98331082D01*
X162035715Y-98297276D01*
X162035715Y-98297275D01*
X162035722Y-98297268D01*
X162126193Y-98158790D01*
X162179338Y-98113437D01*
X162248569Y-98104013D01*
X162311905Y-98133515D01*
X162333804Y-98158787D01*
X162424278Y-98297268D01*
X162424283Y-98297273D01*
X162424284Y-98297276D01*
X162550968Y-98434889D01*
X162576760Y-98462906D01*
X162754424Y-98601189D01*
X162754425Y-98601189D01*
X162754427Y-98601191D01*
X162814314Y-98633600D01*
X162952426Y-98708342D01*
X163165365Y-98781444D01*
X163387431Y-98818500D01*
X163612569Y-98818500D01*
X163834635Y-98781444D01*
X164047574Y-98708342D01*
X164245576Y-98601189D01*
X164423240Y-98462906D01*
X164544594Y-98331082D01*
X164575715Y-98297276D01*
X164575717Y-98297273D01*
X164575722Y-98297268D01*
X164698860Y-98108791D01*
X164789296Y-97902616D01*
X164844564Y-97684368D01*
X164854387Y-97565826D01*
X164863156Y-97460005D01*
X164863156Y-97459994D01*
X164844565Y-97235640D01*
X164844563Y-97235628D01*
X164794140Y-97036513D01*
X164789296Y-97017384D01*
X164698860Y-96811209D01*
X164682706Y-96786484D01*
X164586863Y-96639785D01*
X164575722Y-96622732D01*
X164575719Y-96622729D01*
X164575715Y-96622723D01*
X164423243Y-96457097D01*
X164423238Y-96457092D01*
X164245577Y-96318812D01*
X164245572Y-96318808D01*
X164047580Y-96211661D01*
X164047577Y-96211659D01*
X164047574Y-96211658D01*
X164047571Y-96211657D01*
X164047569Y-96211656D01*
X163834637Y-96138556D01*
X163612569Y-96101500D01*
X163387431Y-96101500D01*
X163165362Y-96138556D01*
X162952430Y-96211656D01*
X162952419Y-96211661D01*
X162754427Y-96318808D01*
X162754422Y-96318812D01*
X162576761Y-96457092D01*
X162576756Y-96457097D01*
X162424284Y-96622723D01*
X162424276Y-96622734D01*
X162333808Y-96761206D01*
X162280662Y-96806562D01*
X162211431Y-96815986D01*
X162148095Y-96786484D01*
X162126192Y-96761206D01*
X162046863Y-96639785D01*
X162035722Y-96622732D01*
X162035719Y-96622729D01*
X162035715Y-96622723D01*
X161883243Y-96457097D01*
X161883238Y-96457092D01*
X161705577Y-96318812D01*
X161705572Y-96318808D01*
X161507580Y-96211661D01*
X161507577Y-96211659D01*
X161507574Y-96211658D01*
X161507571Y-96211657D01*
X161507569Y-96211656D01*
X161294637Y-96138556D01*
X161072569Y-96101500D01*
X160847431Y-96101500D01*
X160625362Y-96138556D01*
X160412430Y-96211656D01*
X160412419Y-96211661D01*
X160214427Y-96318808D01*
X160214422Y-96318812D01*
X160036761Y-96457092D01*
X160036756Y-96457097D01*
X159884284Y-96622723D01*
X159884276Y-96622734D01*
X159793808Y-96761206D01*
X159740662Y-96806562D01*
X159671431Y-96815986D01*
X159608095Y-96786484D01*
X159586192Y-96761206D01*
X159506863Y-96639785D01*
X159495722Y-96622732D01*
X159495719Y-96622729D01*
X159495715Y-96622723D01*
X159343243Y-96457097D01*
X159343238Y-96457092D01*
X159165577Y-96318812D01*
X159165572Y-96318808D01*
X158967580Y-96211661D01*
X158967577Y-96211659D01*
X158967574Y-96211658D01*
X158967571Y-96211657D01*
X158967569Y-96211656D01*
X158754637Y-96138556D01*
X158532569Y-96101500D01*
X158307431Y-96101500D01*
X158085362Y-96138556D01*
X157872430Y-96211656D01*
X157872419Y-96211661D01*
X157674427Y-96318808D01*
X157674422Y-96318812D01*
X157496761Y-96457092D01*
X157496756Y-96457097D01*
X157344284Y-96622723D01*
X157344276Y-96622734D01*
X157253808Y-96761206D01*
X157200662Y-96806562D01*
X157131431Y-96815986D01*
X157068095Y-96786484D01*
X157046192Y-96761206D01*
X156966863Y-96639785D01*
X156955722Y-96622732D01*
X156955719Y-96622729D01*
X156955715Y-96622723D01*
X156803243Y-96457097D01*
X156803238Y-96457092D01*
X156625577Y-96318812D01*
X156625572Y-96318808D01*
X156427580Y-96211661D01*
X156427577Y-96211659D01*
X156427574Y-96211658D01*
X156427571Y-96211657D01*
X156427569Y-96211656D01*
X156214637Y-96138556D01*
X155992569Y-96101500D01*
X155767431Y-96101500D01*
X155545362Y-96138556D01*
X155332430Y-96211656D01*
X155332419Y-96211661D01*
X155134427Y-96318808D01*
X155134422Y-96318812D01*
X154956761Y-96457092D01*
X154956756Y-96457097D01*
X154804284Y-96622723D01*
X154804276Y-96622734D01*
X154713808Y-96761206D01*
X154660662Y-96806562D01*
X154591431Y-96815986D01*
X154528095Y-96786484D01*
X154506192Y-96761206D01*
X154426863Y-96639785D01*
X154415722Y-96622732D01*
X154415719Y-96622729D01*
X154415715Y-96622723D01*
X154263243Y-96457097D01*
X154263238Y-96457092D01*
X154085577Y-96318812D01*
X154085572Y-96318808D01*
X153887580Y-96211661D01*
X153887577Y-96211659D01*
X153887574Y-96211658D01*
X153887571Y-96211657D01*
X153887569Y-96211656D01*
X153674637Y-96138556D01*
X153452569Y-96101500D01*
X153227431Y-96101500D01*
X153005362Y-96138556D01*
X152792430Y-96211656D01*
X152792419Y-96211661D01*
X152594427Y-96318808D01*
X152594422Y-96318812D01*
X152416761Y-96457092D01*
X152353548Y-96525760D01*
X152293661Y-96561750D01*
X152223823Y-96559649D01*
X152166207Y-96520124D01*
X152146138Y-96485110D01*
X152100889Y-96363796D01*
X152100888Y-96363795D01*
X152013261Y-96246739D01*
X151896204Y-96159111D01*
X151848988Y-96141500D01*
X151759203Y-96108011D01*
X151698654Y-96101500D01*
X151698638Y-96101500D01*
X149901362Y-96101500D01*
X149901345Y-96101500D01*
X149840797Y-96108011D01*
X149840795Y-96108011D01*
X149703795Y-96159111D01*
X149586739Y-96246739D01*
X149499111Y-96363795D01*
X149448011Y-96500795D01*
X149448011Y-96500797D01*
X149441500Y-96561345D01*
X146739212Y-96561345D01*
X146643243Y-96457097D01*
X146643238Y-96457092D01*
X146465577Y-96318812D01*
X146465572Y-96318808D01*
X146267580Y-96211661D01*
X146267577Y-96211659D01*
X146267574Y-96211658D01*
X146267571Y-96211657D01*
X146267569Y-96211656D01*
X146054637Y-96138556D01*
X145832569Y-96101500D01*
X145607431Y-96101500D01*
X145385362Y-96138556D01*
X145172430Y-96211656D01*
X145172419Y-96211661D01*
X144974427Y-96318808D01*
X144974422Y-96318812D01*
X144796761Y-96457092D01*
X144796756Y-96457097D01*
X144644284Y-96622723D01*
X144644276Y-96622734D01*
X144550251Y-96766650D01*
X144497105Y-96812007D01*
X144427873Y-96821430D01*
X144364538Y-96791928D01*
X144344868Y-96769951D01*
X144218113Y-96588926D01*
X144218108Y-96588920D01*
X144051082Y-96421894D01*
X143857578Y-96286399D01*
X143643492Y-96186570D01*
X143643486Y-96186567D01*
X143430000Y-96129364D01*
X143430000Y-97026988D01*
X143372993Y-96994075D01*
X143245826Y-96960000D01*
X143114174Y-96960000D01*
X142987007Y-96994075D01*
X142930000Y-97026988D01*
X142930000Y-96129364D01*
X142929999Y-96129364D01*
X142716513Y-96186567D01*
X142716507Y-96186570D01*
X142502422Y-96286399D01*
X142502420Y-96286400D01*
X142308926Y-96421886D01*
X142308920Y-96421891D01*
X142141891Y-96588920D01*
X142141890Y-96588922D01*
X142011575Y-96775031D01*
X141956998Y-96818655D01*
X141887499Y-96825848D01*
X141825145Y-96794326D01*
X141808425Y-96775031D01*
X141678109Y-96588922D01*
X141678108Y-96588920D01*
X141511082Y-96421894D01*
X141317578Y-96286399D01*
X141103492Y-96186570D01*
X141103486Y-96186567D01*
X140890000Y-96129364D01*
X140890000Y-97026988D01*
X140832993Y-96994075D01*
X140705826Y-96960000D01*
X140574174Y-96960000D01*
X140447007Y-96994075D01*
X140390000Y-97026988D01*
X140390000Y-96129364D01*
X140389999Y-96129364D01*
X140176513Y-96186567D01*
X140176507Y-96186570D01*
X139962422Y-96286399D01*
X139962420Y-96286400D01*
X139768926Y-96421886D01*
X139768920Y-96421891D01*
X139601891Y-96588920D01*
X139601890Y-96588922D01*
X139475131Y-96769952D01*
X139420554Y-96813577D01*
X139351055Y-96820769D01*
X139288701Y-96789247D01*
X139269752Y-96766656D01*
X139175722Y-96622732D01*
X139175715Y-96622725D01*
X139175715Y-96622723D01*
X139023243Y-96457097D01*
X139023238Y-96457092D01*
X138845577Y-96318812D01*
X138845572Y-96318808D01*
X138647580Y-96211661D01*
X138647577Y-96211659D01*
X138647574Y-96211658D01*
X138647571Y-96211657D01*
X138647569Y-96211656D01*
X138434637Y-96138556D01*
X138212569Y-96101500D01*
X137987431Y-96101500D01*
X137765362Y-96138556D01*
X137552430Y-96211656D01*
X137552419Y-96211661D01*
X137354427Y-96318808D01*
X137354422Y-96318812D01*
X137176761Y-96457092D01*
X137176756Y-96457097D01*
X137024284Y-96622723D01*
X137024276Y-96622734D01*
X136933808Y-96761206D01*
X136880662Y-96806562D01*
X136811431Y-96815986D01*
X136748095Y-96786484D01*
X136726192Y-96761206D01*
X136646863Y-96639785D01*
X136635722Y-96622732D01*
X136635719Y-96622729D01*
X136635715Y-96622723D01*
X136483243Y-96457097D01*
X136483238Y-96457092D01*
X136305577Y-96318812D01*
X136305572Y-96318808D01*
X136107580Y-96211661D01*
X136107577Y-96211659D01*
X136107574Y-96211658D01*
X136107571Y-96211657D01*
X136107569Y-96211656D01*
X135894637Y-96138556D01*
X135672569Y-96101500D01*
X135447431Y-96101500D01*
X135225362Y-96138556D01*
X135012430Y-96211656D01*
X135012419Y-96211661D01*
X134814427Y-96318808D01*
X134814422Y-96318812D01*
X134636761Y-96457092D01*
X134636756Y-96457097D01*
X134484284Y-96622723D01*
X134484276Y-96622734D01*
X134393808Y-96761206D01*
X134340662Y-96806562D01*
X134271431Y-96815986D01*
X134208095Y-96786484D01*
X134186192Y-96761206D01*
X134106863Y-96639785D01*
X134095722Y-96622732D01*
X134095719Y-96622729D01*
X134095715Y-96622723D01*
X133943243Y-96457097D01*
X133943238Y-96457092D01*
X133765577Y-96318812D01*
X133765572Y-96318808D01*
X133567580Y-96211661D01*
X133567577Y-96211659D01*
X133567574Y-96211658D01*
X133567571Y-96211657D01*
X133567569Y-96211656D01*
X133354637Y-96138556D01*
X133132569Y-96101500D01*
X132907431Y-96101500D01*
X132685362Y-96138556D01*
X132472430Y-96211656D01*
X132472419Y-96211661D01*
X132274427Y-96318808D01*
X132274422Y-96318812D01*
X132096761Y-96457092D01*
X132096756Y-96457097D01*
X131944284Y-96622723D01*
X131944276Y-96622734D01*
X131853808Y-96761206D01*
X131800662Y-96806562D01*
X131731431Y-96815986D01*
X131668095Y-96786484D01*
X131646192Y-96761206D01*
X131566863Y-96639785D01*
X131555722Y-96622732D01*
X131555719Y-96622729D01*
X131555715Y-96622723D01*
X131403243Y-96457097D01*
X131403238Y-96457092D01*
X131225577Y-96318812D01*
X131225572Y-96318808D01*
X131027580Y-96211661D01*
X131027577Y-96211659D01*
X131027574Y-96211658D01*
X131027571Y-96211657D01*
X131027569Y-96211656D01*
X130814637Y-96138556D01*
X130592569Y-96101500D01*
X130367431Y-96101500D01*
X130145362Y-96138556D01*
X129932430Y-96211656D01*
X129932419Y-96211661D01*
X129734427Y-96318808D01*
X129734422Y-96318812D01*
X129556761Y-96457092D01*
X129493548Y-96525760D01*
X129433661Y-96561750D01*
X129363823Y-96559649D01*
X129306207Y-96520124D01*
X129286138Y-96485110D01*
X129240889Y-96363796D01*
X129240888Y-96363795D01*
X129153261Y-96246739D01*
X129036204Y-96159111D01*
X128988988Y-96141500D01*
X128899203Y-96108011D01*
X128838654Y-96101500D01*
X128838638Y-96101500D01*
X127041362Y-96101500D01*
X127041345Y-96101500D01*
X126980797Y-96108011D01*
X126980795Y-96108011D01*
X126843795Y-96159111D01*
X126726739Y-96246739D01*
X126639111Y-96363795D01*
X126588011Y-96500795D01*
X126588011Y-96500797D01*
X126581500Y-96561345D01*
X124354197Y-96561345D01*
X124351989Y-96540799D01*
X124349222Y-96533381D01*
X124322559Y-96461894D01*
X124300889Y-96403796D01*
X124213261Y-96286739D01*
X124096204Y-96199111D01*
X124062573Y-96186567D01*
X123959203Y-96148011D01*
X123898654Y-96141500D01*
X123898638Y-96141500D01*
X122101362Y-96141500D01*
X122101345Y-96141500D01*
X122040797Y-96148011D01*
X122040795Y-96148011D01*
X121903795Y-96199111D01*
X121786739Y-96286739D01*
X121699111Y-96403795D01*
X121650777Y-96533381D01*
X121608905Y-96589314D01*
X121543441Y-96613730D01*
X121475168Y-96598878D01*
X121446915Y-96577727D01*
X121331082Y-96461894D01*
X121137578Y-96326399D01*
X120923492Y-96226570D01*
X120923486Y-96226567D01*
X120710000Y-96169364D01*
X120710000Y-97066988D01*
X120652993Y-97034075D01*
X120525826Y-97000000D01*
X120394174Y-97000000D01*
X120267007Y-97034075D01*
X120210000Y-97066988D01*
X120210000Y-96169364D01*
X120209999Y-96169364D01*
X119996513Y-96226567D01*
X119996507Y-96226570D01*
X119782422Y-96326399D01*
X119782420Y-96326400D01*
X119588926Y-96461886D01*
X119588920Y-96461891D01*
X119421891Y-96628920D01*
X119421886Y-96628926D01*
X119286400Y-96822420D01*
X119286399Y-96822422D01*
X119186570Y-97036507D01*
X119186567Y-97036513D01*
X119129364Y-97249999D01*
X115808821Y-97249999D01*
X115788838Y-97098211D01*
X115726054Y-96863900D01*
X115633224Y-96639788D01*
X115511936Y-96429711D01*
X115364265Y-96237262D01*
X115364260Y-96237256D01*
X115192743Y-96065739D01*
X115192736Y-96065733D01*
X115000293Y-95918067D01*
X115000292Y-95918066D01*
X115000289Y-95918064D01*
X114790212Y-95796776D01*
X114790205Y-95796773D01*
X114566104Y-95703947D01*
X114331785Y-95641161D01*
X114091289Y-95609500D01*
X114091288Y-95609500D01*
X113848712Y-95609500D01*
X113848711Y-95609500D01*
X113608214Y-95641161D01*
X113373895Y-95703947D01*
X113149794Y-95796773D01*
X113149785Y-95796777D01*
X112939706Y-95918067D01*
X112747263Y-96065733D01*
X112747256Y-96065739D01*
X112575739Y-96237256D01*
X112575733Y-96237263D01*
X112428067Y-96429706D01*
X112306777Y-96639785D01*
X112306773Y-96639794D01*
X112213947Y-96863895D01*
X112151161Y-97098214D01*
X112119500Y-97338711D01*
X112119500Y-97581288D01*
X112151161Y-97821785D01*
X112213947Y-98056104D01*
X112306773Y-98280205D01*
X112306777Y-98280214D01*
X112316623Y-98297268D01*
X112428064Y-98490289D01*
X112428066Y-98490292D01*
X112428067Y-98490293D01*
X112575733Y-98682736D01*
X112575739Y-98682743D01*
X112747256Y-98854260D01*
X112747262Y-98854265D01*
X112939711Y-99001936D01*
X113149788Y-99123224D01*
X113373900Y-99216054D01*
X113521956Y-99255726D01*
X113581615Y-99292090D01*
X113612144Y-99354937D01*
X113603849Y-99424313D01*
X113559364Y-99478191D01*
X113492812Y-99499465D01*
X113489861Y-99499500D01*
X111771757Y-99499500D01*
X111752360Y-99497973D01*
X111718098Y-99492546D01*
X111700588Y-99489773D01*
X111663695Y-99477786D01*
X111625790Y-99458472D01*
X111594406Y-99435670D01*
X111564329Y-99405593D01*
X111541528Y-99374211D01*
X111522212Y-99336301D01*
X111510227Y-99299417D01*
X111502025Y-99247630D01*
X111500500Y-99228242D01*
X111500500Y-90449994D01*
X121656844Y-90449994D01*
X121656844Y-90450005D01*
X121675434Y-90674359D01*
X121675436Y-90674371D01*
X121730703Y-90892614D01*
X121821140Y-91098792D01*
X121944276Y-91287265D01*
X121944284Y-91287276D01*
X122070967Y-91424888D01*
X122096760Y-91452906D01*
X122274424Y-91591189D01*
X122274425Y-91591189D01*
X122274427Y-91591191D01*
X122401135Y-91659761D01*
X122472426Y-91698342D01*
X122685365Y-91771444D01*
X122907431Y-91808500D01*
X123132569Y-91808500D01*
X123354635Y-91771444D01*
X123567574Y-91698342D01*
X123765576Y-91591189D01*
X123943240Y-91452906D01*
X124095722Y-91287268D01*
X124186193Y-91148790D01*
X124239338Y-91103437D01*
X124308569Y-91094013D01*
X124371905Y-91123515D01*
X124393804Y-91148787D01*
X124484278Y-91287268D01*
X124484283Y-91287273D01*
X124484284Y-91287276D01*
X124610967Y-91424888D01*
X124636760Y-91452906D01*
X124814424Y-91591189D01*
X124814425Y-91591189D01*
X124814427Y-91591191D01*
X124941135Y-91659761D01*
X125012426Y-91698342D01*
X125225365Y-91771444D01*
X125447431Y-91808500D01*
X125672569Y-91808500D01*
X125894635Y-91771444D01*
X126107574Y-91698342D01*
X126305576Y-91591189D01*
X126483240Y-91452906D01*
X126546452Y-91384239D01*
X126606337Y-91348250D01*
X126676175Y-91350349D01*
X126733791Y-91389873D01*
X126753861Y-91424888D01*
X126799111Y-91546204D01*
X126886739Y-91663261D01*
X127003796Y-91750889D01*
X127140799Y-91801989D01*
X127168050Y-91804918D01*
X127201345Y-91808499D01*
X127201362Y-91808500D01*
X128998638Y-91808500D01*
X128998654Y-91808499D01*
X129025692Y-91805591D01*
X129059201Y-91801989D01*
X129196204Y-91750889D01*
X129313261Y-91663261D01*
X129400889Y-91546204D01*
X129451989Y-91409201D01*
X129455591Y-91375692D01*
X129458499Y-91348654D01*
X129458500Y-91348637D01*
X129458500Y-89551362D01*
X129458499Y-89551345D01*
X129454672Y-89515759D01*
X129451989Y-89490799D01*
X129400889Y-89353796D01*
X129313261Y-89236739D01*
X129196204Y-89149111D01*
X129059203Y-89098011D01*
X128998654Y-89091500D01*
X128998638Y-89091500D01*
X127201362Y-89091500D01*
X127201345Y-89091500D01*
X127140797Y-89098011D01*
X127140795Y-89098011D01*
X127003795Y-89149111D01*
X126886739Y-89236739D01*
X126799111Y-89353795D01*
X126753861Y-89475111D01*
X126711989Y-89531044D01*
X126646524Y-89555460D01*
X126578252Y-89540607D01*
X126546454Y-89515762D01*
X126483240Y-89447094D01*
X126305576Y-89308811D01*
X126305575Y-89308810D01*
X126305572Y-89308808D01*
X126107580Y-89201661D01*
X126107577Y-89201659D01*
X126107574Y-89201658D01*
X126107571Y-89201657D01*
X126107569Y-89201656D01*
X125894637Y-89128556D01*
X125672569Y-89091500D01*
X125447431Y-89091500D01*
X125225362Y-89128556D01*
X125012430Y-89201656D01*
X125012419Y-89201661D01*
X124814427Y-89308808D01*
X124814422Y-89308812D01*
X124636761Y-89447092D01*
X124636756Y-89447097D01*
X124484284Y-89612723D01*
X124484276Y-89612734D01*
X124393808Y-89751206D01*
X124340662Y-89796562D01*
X124271431Y-89805986D01*
X124208095Y-89776484D01*
X124186192Y-89751206D01*
X124095723Y-89612734D01*
X124095715Y-89612723D01*
X123943243Y-89447097D01*
X123943238Y-89447092D01*
X123765577Y-89308812D01*
X123765572Y-89308808D01*
X123567580Y-89201661D01*
X123567577Y-89201659D01*
X123567574Y-89201658D01*
X123567571Y-89201657D01*
X123567569Y-89201656D01*
X123354637Y-89128556D01*
X123132569Y-89091500D01*
X122907431Y-89091500D01*
X122685362Y-89128556D01*
X122472430Y-89201656D01*
X122472419Y-89201661D01*
X122274427Y-89308808D01*
X122274422Y-89308812D01*
X122096761Y-89447092D01*
X122096756Y-89447097D01*
X121944284Y-89612723D01*
X121944276Y-89612734D01*
X121821140Y-89801207D01*
X121730703Y-90007385D01*
X121675436Y-90225628D01*
X121675434Y-90225640D01*
X121656844Y-90449994D01*
X111500500Y-90449994D01*
X111500500Y-79410000D01*
X156763497Y-79410000D01*
X159775038Y-79410000D01*
X159745000Y-79561016D01*
X159745000Y-79758984D01*
X159775038Y-79910000D01*
X156763498Y-79910000D01*
X156788496Y-80099884D01*
X156788499Y-80099897D01*
X156864835Y-80384790D01*
X156864838Y-80384800D01*
X156977704Y-80657281D01*
X156977709Y-80657292D01*
X157125174Y-80912707D01*
X157125185Y-80912723D01*
X157304729Y-81146709D01*
X157304735Y-81146716D01*
X157513283Y-81355264D01*
X157513290Y-81355270D01*
X157747276Y-81534814D01*
X157747292Y-81534825D01*
X158002707Y-81682290D01*
X158002718Y-81682295D01*
X158275199Y-81795161D01*
X158275209Y-81795164D01*
X158560102Y-81871500D01*
X158560115Y-81871503D01*
X158852516Y-81909998D01*
X158852534Y-81910000D01*
X160500000Y-81910000D01*
X160500000Y-80634961D01*
X160651016Y-80665000D01*
X160848984Y-80665000D01*
X161000000Y-80634961D01*
X161000000Y-81910000D01*
X162647466Y-81910000D01*
X162647483Y-81909998D01*
X162939884Y-81871503D01*
X162939897Y-81871500D01*
X163224790Y-81795164D01*
X163224800Y-81795161D01*
X163497281Y-81682295D01*
X163497292Y-81682290D01*
X163752707Y-81534825D01*
X163752723Y-81534814D01*
X163986709Y-81355270D01*
X163986716Y-81355264D01*
X164195264Y-81146716D01*
X164195270Y-81146709D01*
X164374814Y-80912723D01*
X164374825Y-80912707D01*
X164522290Y-80657292D01*
X164522295Y-80657281D01*
X164635161Y-80384800D01*
X164635164Y-80384790D01*
X164711500Y-80099897D01*
X164711503Y-80099884D01*
X164736502Y-79910000D01*
X161724962Y-79910000D01*
X161755000Y-79758984D01*
X161755000Y-79561016D01*
X161724962Y-79410000D01*
X164736502Y-79410000D01*
X164711503Y-79220115D01*
X164711500Y-79220102D01*
X164635164Y-78935209D01*
X164635161Y-78935199D01*
X164522295Y-78662718D01*
X164522290Y-78662707D01*
X164374825Y-78407292D01*
X164374814Y-78407276D01*
X164195270Y-78173290D01*
X164195264Y-78173283D01*
X163986716Y-77964735D01*
X163986709Y-77964729D01*
X163752723Y-77785185D01*
X163752707Y-77785174D01*
X163497292Y-77637709D01*
X163497281Y-77637704D01*
X163224800Y-77524838D01*
X163224790Y-77524835D01*
X162939897Y-77448499D01*
X162939884Y-77448496D01*
X162647483Y-77410001D01*
X162647466Y-77410000D01*
X161000000Y-77410000D01*
X161000000Y-78685038D01*
X160848984Y-78655000D01*
X160651016Y-78655000D01*
X160500000Y-78685038D01*
X160500000Y-77410000D01*
X158852534Y-77410000D01*
X158852516Y-77410001D01*
X158560115Y-77448496D01*
X158560102Y-77448499D01*
X158275209Y-77524835D01*
X158275199Y-77524838D01*
X158002718Y-77637704D01*
X158002707Y-77637709D01*
X157747292Y-77785174D01*
X157747276Y-77785185D01*
X157513290Y-77964729D01*
X157513283Y-77964735D01*
X157304735Y-78173283D01*
X157304729Y-78173290D01*
X157125185Y-78407276D01*
X157125174Y-78407292D01*
X156977709Y-78662707D01*
X156977704Y-78662718D01*
X156864838Y-78935199D01*
X156864835Y-78935209D01*
X156788499Y-79220102D01*
X156788496Y-79220115D01*
X156763497Y-79410000D01*
X111500500Y-79410000D01*
X111500500Y-74477019D01*
X153911500Y-74477019D01*
X153911500Y-74682980D01*
X153943719Y-74886408D01*
X154007367Y-75082294D01*
X154100873Y-75265806D01*
X154221926Y-75432423D01*
X154221930Y-75432428D01*
X154367571Y-75578069D01*
X154367576Y-75578073D01*
X154512908Y-75683661D01*
X154534197Y-75699129D01*
X154651128Y-75758709D01*
X154717705Y-75792632D01*
X154717707Y-75792632D01*
X154717710Y-75792634D01*
X154822707Y-75826749D01*
X154913591Y-75856280D01*
X155015305Y-75872390D01*
X155117019Y-75888500D01*
X155117020Y-75888500D01*
X156222980Y-75888500D01*
X156222981Y-75888500D01*
X156426408Y-75856280D01*
X156622290Y-75792634D01*
X156805803Y-75699129D01*
X156972430Y-75578068D01*
X157118068Y-75432430D01*
X157239129Y-75265803D01*
X157332634Y-75082290D01*
X157396280Y-74886408D01*
X157428500Y-74682981D01*
X157428500Y-74477019D01*
X157396280Y-74273592D01*
X157332634Y-74077710D01*
X157332632Y-74077707D01*
X157332632Y-74077705D01*
X157298709Y-74011128D01*
X157239129Y-73894197D01*
X157223661Y-73872908D01*
X157118073Y-73727576D01*
X157118069Y-73727571D01*
X156972428Y-73581930D01*
X156972423Y-73581926D01*
X156805806Y-73460873D01*
X156805805Y-73460872D01*
X156805803Y-73460871D01*
X156717180Y-73415715D01*
X156666384Y-73367740D01*
X156649589Y-73299919D01*
X156672127Y-73233784D01*
X156717181Y-73194745D01*
X156801347Y-73151861D01*
X156966894Y-73031582D01*
X156966895Y-73031582D01*
X157111582Y-72886895D01*
X157111582Y-72886894D01*
X157231859Y-72721349D01*
X157324755Y-72539029D01*
X157387990Y-72344413D01*
X157396609Y-72290000D01*
X156039504Y-72290000D01*
X156084674Y-72211764D01*
X156115000Y-72098585D01*
X156115000Y-71981415D01*
X156084674Y-71868236D01*
X156039504Y-71790000D01*
X157396609Y-71790000D01*
X157387990Y-71735586D01*
X157324755Y-71540970D01*
X157231859Y-71358650D01*
X157111582Y-71193105D01*
X157111582Y-71193104D01*
X156966895Y-71048417D01*
X156801349Y-70928140D01*
X156619031Y-70835244D01*
X156424417Y-70772009D01*
X156222317Y-70740000D01*
X155920000Y-70740000D01*
X155920000Y-71670495D01*
X155841764Y-71625326D01*
X155728585Y-71595000D01*
X155611415Y-71595000D01*
X155498236Y-71625326D01*
X155420000Y-71670495D01*
X155420000Y-70740000D01*
X155117683Y-70740000D01*
X154915582Y-70772009D01*
X154720968Y-70835244D01*
X154538650Y-70928140D01*
X154373105Y-71048417D01*
X154373104Y-71048417D01*
X154228417Y-71193104D01*
X154228417Y-71193105D01*
X154108140Y-71358650D01*
X154015244Y-71540970D01*
X153952009Y-71735586D01*
X153943391Y-71790000D01*
X155300496Y-71790000D01*
X155255326Y-71868236D01*
X155225000Y-71981415D01*
X155225000Y-72098585D01*
X155255326Y-72211764D01*
X155300496Y-72290000D01*
X153943391Y-72290000D01*
X153952009Y-72344413D01*
X154015244Y-72539029D01*
X154108140Y-72721349D01*
X154228417Y-72886894D01*
X154228417Y-72886895D01*
X154373104Y-73031582D01*
X154538652Y-73151861D01*
X154622818Y-73194745D01*
X154673614Y-73242719D01*
X154690410Y-73310540D01*
X154667873Y-73376675D01*
X154622820Y-73415714D01*
X154534195Y-73460871D01*
X154367576Y-73581926D01*
X154367571Y-73581930D01*
X154221930Y-73727571D01*
X154221926Y-73727576D01*
X154100873Y-73894193D01*
X154007367Y-74077705D01*
X153943719Y-74273591D01*
X153911500Y-74477019D01*
X111500500Y-74477019D01*
X111500500Y-71199994D01*
X148836844Y-71199994D01*
X148836844Y-71200005D01*
X148855434Y-71424359D01*
X148855436Y-71424371D01*
X148910703Y-71642614D01*
X149001140Y-71848792D01*
X149124276Y-72037265D01*
X149124284Y-72037276D01*
X149276756Y-72202902D01*
X149276761Y-72202907D01*
X149335981Y-72249000D01*
X149454424Y-72341189D01*
X149454425Y-72341189D01*
X149454427Y-72341191D01*
X149581135Y-72409761D01*
X149652426Y-72448342D01*
X149865365Y-72521444D01*
X150087431Y-72558500D01*
X150312569Y-72558500D01*
X150534635Y-72521444D01*
X150747574Y-72448342D01*
X150945576Y-72341189D01*
X151123240Y-72202906D01*
X151275722Y-72037268D01*
X151398860Y-71848791D01*
X151489296Y-71642616D01*
X151544564Y-71424368D01*
X151544565Y-71424359D01*
X151563156Y-71200005D01*
X151563156Y-71199994D01*
X151544565Y-70975640D01*
X151544563Y-70975628D01*
X151509013Y-70835244D01*
X151489296Y-70757384D01*
X151398860Y-70551209D01*
X151275722Y-70362732D01*
X151275719Y-70362729D01*
X151275715Y-70362723D01*
X151123243Y-70197097D01*
X151123238Y-70197092D01*
X150945577Y-70058812D01*
X150945572Y-70058808D01*
X150747580Y-69951661D01*
X150747577Y-69951659D01*
X150747574Y-69951658D01*
X150747571Y-69951657D01*
X150747569Y-69951656D01*
X150534637Y-69878556D01*
X150312569Y-69841500D01*
X150087431Y-69841500D01*
X149865362Y-69878556D01*
X149652430Y-69951656D01*
X149652419Y-69951661D01*
X149454427Y-70058808D01*
X149454422Y-70058812D01*
X149276761Y-70197092D01*
X149276756Y-70197097D01*
X149124284Y-70362723D01*
X149124276Y-70362734D01*
X149001140Y-70551207D01*
X148910703Y-70757385D01*
X148855436Y-70975628D01*
X148855434Y-70975640D01*
X148836844Y-71199994D01*
X111500500Y-71199994D01*
X111500500Y-68599996D01*
X148536384Y-68599996D01*
X148536384Y-68600003D01*
X148556781Y-68781041D01*
X148556782Y-68781046D01*
X148616958Y-68953017D01*
X148713889Y-69107281D01*
X148842719Y-69236111D01*
X148996985Y-69333043D01*
X149168953Y-69393217D01*
X149168958Y-69393218D01*
X149349996Y-69413616D01*
X149350000Y-69413616D01*
X149350004Y-69413616D01*
X149531041Y-69393218D01*
X149531044Y-69393217D01*
X149531047Y-69393217D01*
X149703015Y-69333043D01*
X149703017Y-69333041D01*
X149703019Y-69333041D01*
X149703022Y-69333039D01*
X149828005Y-69254507D01*
X149893977Y-69235500D01*
X150606023Y-69235500D01*
X150671995Y-69254507D01*
X150796977Y-69333039D01*
X150796980Y-69333041D01*
X150796984Y-69333042D01*
X150796985Y-69333043D01*
X150968953Y-69393217D01*
X150968958Y-69393218D01*
X151149996Y-69413616D01*
X151150000Y-69413616D01*
X151150004Y-69413616D01*
X151331041Y-69393218D01*
X151331044Y-69393217D01*
X151331047Y-69393217D01*
X151503015Y-69333043D01*
X151635177Y-69250000D01*
X156763497Y-69250000D01*
X159775038Y-69250000D01*
X159745000Y-69401016D01*
X159745000Y-69598984D01*
X159775038Y-69750000D01*
X156763498Y-69750000D01*
X156788496Y-69939884D01*
X156788499Y-69939897D01*
X156864835Y-70224790D01*
X156864838Y-70224800D01*
X156977704Y-70497281D01*
X156977709Y-70497292D01*
X157125174Y-70752707D01*
X157125185Y-70752723D01*
X157304729Y-70986709D01*
X157304735Y-70986716D01*
X157513283Y-71195264D01*
X157513290Y-71195270D01*
X157747276Y-71374814D01*
X157747292Y-71374825D01*
X158002707Y-71522290D01*
X158002718Y-71522295D01*
X158275199Y-71635161D01*
X158275209Y-71635164D01*
X158560102Y-71711500D01*
X158560115Y-71711503D01*
X158852516Y-71749998D01*
X158852534Y-71750000D01*
X160500000Y-71750000D01*
X160500000Y-70474961D01*
X160651016Y-70505000D01*
X160848984Y-70505000D01*
X161000000Y-70474961D01*
X161000000Y-71750000D01*
X162647466Y-71750000D01*
X162647483Y-71749998D01*
X162939884Y-71711503D01*
X162939897Y-71711500D01*
X163224790Y-71635164D01*
X163224800Y-71635161D01*
X163497281Y-71522295D01*
X163497292Y-71522290D01*
X163752707Y-71374825D01*
X163752723Y-71374814D01*
X163986709Y-71195270D01*
X163986716Y-71195264D01*
X164195264Y-70986716D01*
X164195270Y-70986709D01*
X164374814Y-70752723D01*
X164374825Y-70752707D01*
X164522290Y-70497292D01*
X164522295Y-70497281D01*
X164635161Y-70224800D01*
X164635164Y-70224790D01*
X164711500Y-69939897D01*
X164711503Y-69939884D01*
X164736502Y-69750000D01*
X161724962Y-69750000D01*
X161755000Y-69598984D01*
X161755000Y-69401016D01*
X161724962Y-69250000D01*
X164736502Y-69250000D01*
X164711503Y-69060115D01*
X164711500Y-69060102D01*
X164635164Y-68775209D01*
X164635161Y-68775199D01*
X164522295Y-68502718D01*
X164522290Y-68502707D01*
X164374825Y-68247292D01*
X164374814Y-68247276D01*
X164195270Y-68013290D01*
X164195264Y-68013283D01*
X163986716Y-67804735D01*
X163986709Y-67804729D01*
X163752723Y-67625185D01*
X163752707Y-67625174D01*
X163497292Y-67477709D01*
X163497281Y-67477704D01*
X163224800Y-67364838D01*
X163224790Y-67364835D01*
X162939897Y-67288499D01*
X162939884Y-67288496D01*
X162647483Y-67250001D01*
X162647466Y-67250000D01*
X161000000Y-67250000D01*
X161000000Y-68525038D01*
X160848984Y-68495000D01*
X160651016Y-68495000D01*
X160500000Y-68525038D01*
X160500000Y-67250000D01*
X158852534Y-67250000D01*
X158852516Y-67250001D01*
X158560115Y-67288496D01*
X158560102Y-67288499D01*
X158275209Y-67364835D01*
X158275199Y-67364838D01*
X158002718Y-67477704D01*
X158002707Y-67477709D01*
X157747292Y-67625174D01*
X157747276Y-67625185D01*
X157513290Y-67804729D01*
X157513283Y-67804735D01*
X157304735Y-68013283D01*
X157304729Y-68013290D01*
X157125185Y-68247276D01*
X157125174Y-68247292D01*
X156977709Y-68502707D01*
X156977704Y-68502718D01*
X156864838Y-68775199D01*
X156864835Y-68775209D01*
X156788499Y-69060102D01*
X156788496Y-69060115D01*
X156763497Y-69250000D01*
X151635177Y-69250000D01*
X151657281Y-69236111D01*
X151786111Y-69107281D01*
X151883043Y-68953015D01*
X151943217Y-68781047D01*
X151963616Y-68600000D01*
X151951785Y-68495000D01*
X151943218Y-68418958D01*
X151943217Y-68418953D01*
X151883043Y-68246985D01*
X151786111Y-68092719D01*
X151657281Y-67963889D01*
X151503015Y-67866957D01*
X151448693Y-67847949D01*
X151331046Y-67806782D01*
X151331041Y-67806781D01*
X151150004Y-67786384D01*
X151149996Y-67786384D01*
X150968958Y-67806781D01*
X150968953Y-67806782D01*
X150796980Y-67866958D01*
X150796977Y-67866960D01*
X150671995Y-67945493D01*
X150606023Y-67964500D01*
X149893977Y-67964500D01*
X149828005Y-67945493D01*
X149703022Y-67866960D01*
X149703019Y-67866958D01*
X149531046Y-67806782D01*
X149531041Y-67806781D01*
X149350004Y-67786384D01*
X149349996Y-67786384D01*
X149168958Y-67806781D01*
X149168953Y-67806782D01*
X148996982Y-67866958D01*
X148842718Y-67963889D01*
X148713889Y-68092718D01*
X148616958Y-68246982D01*
X148556782Y-68418953D01*
X148556781Y-68418958D01*
X148536384Y-68599996D01*
X111500500Y-68599996D01*
X111500500Y-62399994D01*
X135636844Y-62399994D01*
X135636844Y-62400005D01*
X135655434Y-62624359D01*
X135655436Y-62624371D01*
X135710703Y-62842614D01*
X135801140Y-63048792D01*
X135924276Y-63237265D01*
X135924284Y-63237276D01*
X136076756Y-63402902D01*
X136076761Y-63402907D01*
X136085503Y-63409711D01*
X136254424Y-63541189D01*
X136254425Y-63541189D01*
X136254427Y-63541191D01*
X136381135Y-63609761D01*
X136452426Y-63648342D01*
X136665365Y-63721444D01*
X136887431Y-63758500D01*
X137112569Y-63758500D01*
X137334635Y-63721444D01*
X137547574Y-63648342D01*
X137745576Y-63541189D01*
X137923240Y-63402906D01*
X138075722Y-63237268D01*
X138198860Y-63048791D01*
X138289296Y-62842616D01*
X138344564Y-62624368D01*
X138344830Y-62621161D01*
X138363156Y-62400005D01*
X138363156Y-62399994D01*
X138344565Y-62175640D01*
X138344563Y-62175628D01*
X138333595Y-62132318D01*
X138289296Y-61957384D01*
X138198860Y-61751209D01*
X138169855Y-61706814D01*
X138075723Y-61562734D01*
X138075715Y-61562723D01*
X137923243Y-61397097D01*
X137923238Y-61397092D01*
X137745577Y-61258812D01*
X137745572Y-61258808D01*
X137547580Y-61151661D01*
X137547577Y-61151659D01*
X137547574Y-61151658D01*
X137547571Y-61151657D01*
X137547569Y-61151656D01*
X137334637Y-61078556D01*
X137112569Y-61041500D01*
X136887431Y-61041500D01*
X136665362Y-61078556D01*
X136452430Y-61151656D01*
X136452419Y-61151661D01*
X136254427Y-61258808D01*
X136254422Y-61258812D01*
X136076761Y-61397092D01*
X136076756Y-61397097D01*
X135924284Y-61562723D01*
X135924276Y-61562734D01*
X135801140Y-61751207D01*
X135710703Y-61957385D01*
X135655436Y-62175628D01*
X135655434Y-62175640D01*
X135636844Y-62399994D01*
X111500500Y-62399994D01*
X111500500Y-53599994D01*
X135636844Y-53599994D01*
X135636844Y-53600005D01*
X135655434Y-53824359D01*
X135655436Y-53824371D01*
X135710703Y-54042614D01*
X135801140Y-54248792D01*
X135924276Y-54437265D01*
X135924284Y-54437276D01*
X136076756Y-54602902D01*
X136076760Y-54602906D01*
X136254424Y-54741189D01*
X136254425Y-54741189D01*
X136254427Y-54741191D01*
X136381135Y-54809761D01*
X136452426Y-54848342D01*
X136665365Y-54921444D01*
X136887431Y-54958500D01*
X137112569Y-54958500D01*
X137334635Y-54921444D01*
X137547574Y-54848342D01*
X137745576Y-54741189D01*
X137923240Y-54602906D01*
X138075722Y-54437268D01*
X138198860Y-54248791D01*
X138289296Y-54042616D01*
X138344564Y-53824368D01*
X138363156Y-53600000D01*
X138344564Y-53375632D01*
X138289296Y-53157384D01*
X138198860Y-52951209D01*
X138075722Y-52762732D01*
X138075719Y-52762729D01*
X138075715Y-52762723D01*
X137923243Y-52597097D01*
X137923238Y-52597092D01*
X137745577Y-52458812D01*
X137745572Y-52458808D01*
X137547580Y-52351661D01*
X137547577Y-52351659D01*
X137547574Y-52351658D01*
X137547571Y-52351657D01*
X137547569Y-52351656D01*
X137334637Y-52278556D01*
X137112569Y-52241500D01*
X136887431Y-52241500D01*
X136665362Y-52278556D01*
X136452430Y-52351656D01*
X136452419Y-52351661D01*
X136254427Y-52458808D01*
X136254422Y-52458812D01*
X136076761Y-52597092D01*
X136076756Y-52597097D01*
X135924284Y-52762723D01*
X135924276Y-52762734D01*
X135801140Y-52951207D01*
X135710703Y-53157385D01*
X135655436Y-53375628D01*
X135655434Y-53375640D01*
X135636844Y-53599994D01*
X111500500Y-53599994D01*
X111500500Y-47431757D01*
X111502025Y-47412370D01*
X111510228Y-47360580D01*
X111522211Y-47323700D01*
X111541529Y-47285785D01*
X111564326Y-47254409D01*
X111594409Y-47224326D01*
X111625785Y-47201529D01*
X111663700Y-47182211D01*
X111700580Y-47170228D01*
X111752370Y-47162025D01*
X111771757Y-47160500D01*
X111827892Y-47160500D01*
X114759861Y-47160500D01*
X114826900Y-47180185D01*
G37*
G04 #@! TD.AperFunction*
M02*
